<svg width="20" height="20" viewBox="0 0 20 20" fill="none" xmlns="http://www.w3.org/2000/svg">
<path d="M5.67602 20H17.2784C18.2606 20 19.0513 19.201 19.0513 18.2271V2.77985C19.0513 1.24834 17.8028 0 16.2713 0H2.7797C1.18601 0 0 1.28969 0 2.77985V6.72485C0 7.44062 0.58234 8.02331 1.29846 8.02331H3.91165V18.2272C3.9115 19.201 4.70231 19.9999 5.67606 19.9999L5.67602 20ZM9.2465 5.78426C9.57118 5.45972 10.0954 5.45972 10.4201 5.78426L10.8444 6.2087L12.2927 4.76051C12.6169 4.43597 13.1416 4.43597 13.4745 4.76051C13.7992 5.08504 13.7992 5.60944 13.4745 5.93396L11.4352 7.97311C11.1069 8.30202 10.5914 8.31078 10.2534 7.97311L9.24646 6.96613C8.92177 6.6416 8.92177 6.10889 9.24646 5.78422L9.2465 5.78426ZM8.06474 10.778H14.8894C15.3472 10.778 15.7217 11.1525 15.7217 11.6103C15.7217 12.0764 15.3472 12.4426 14.8894 12.4426H8.06474C7.6069 12.4426 7.23242 12.0764 7.23242 11.6103C7.23242 11.1526 7.60692 10.778 8.06474 10.778ZM8.06474 15.0063H14.8894C15.3472 15.0063 15.7217 15.3808 15.7217 15.8386C15.7217 16.2964 15.3472 16.6709 14.8894 16.6709H8.06474C7.6069 16.6709 7.23242 16.2964 7.23242 15.8386C7.23242 15.3808 7.60692 15.0063 8.06474 15.0063ZM3.90334 6.35848H1.66448V2.77954C1.66448 2.17529 2.13754 1.66421 2.78797 1.66421C3.41846 1.66421 3.9033 2.1889 3.9033 2.86274L3.90334 6.35848Z" fill="#969696"/>
</svg>
