<svg width="25" height="25" viewBox="0 0 25 25" fill="none" xmlns="http://www.w3.org/2000/svg">
<g clip-path="url(#clip0_553_219)">
<path d="M0.5 23.635V11.7708C0.5 11.4213 0.598286 11.0905 0.794857 10.7784C0.991428 10.4663 1.26229 10.2092 1.60743 10.0072L10.8389 4.44088C11.3223 4.14696 11.8743 4 12.4949 4C13.1154 4 13.6709 4.14696 14.1611 4.44088L23.3926 10.0059C23.7389 10.2079 24.0097 10.4654 24.2051 10.7784C24.4017 11.0905 24.5 11.4213 24.5 11.7708V23.635C24.5 24.0008 24.3291 24.3198 23.9874 24.5919C23.6457 24.864 23.2451 25 22.7857 25H16.9846C16.5914 25 16.2623 24.8944 15.9971 24.6833C15.732 24.4713 15.5994 24.2092 15.5994 23.8971V17.3876C15.5994 17.0755 15.4669 16.8138 15.2017 16.6027C14.9354 16.3907 14.6063 16.2847 14.2143 16.2847H10.7857C10.3937 16.2847 10.0651 16.3907 9.8 16.6027C9.53371 16.8138 9.40057 17.0755 9.40057 17.3876V23.8985C9.40057 24.2106 9.268 24.4722 9.00286 24.6833C8.73771 24.8944 8.40914 25 8.01714 25H2.21429C1.75486 25 1.35429 24.864 1.01257 24.5919C0.670857 24.3198 0.5 24.0008 0.5 23.635Z" fill="#9DB2CE"/>
</g>
<defs>
<clipPath id="clip0_553_219">
<rect width="24" height="24" fill="white" transform="translate(0.5 0.5)"/>
</clipPath>
</defs>
</svg>
