<svg width="23" height="19" viewBox="0 0 23 19" fill="none" xmlns="http://www.w3.org/2000/svg">
<path d="M1.9375 0.5C1.00586 0.5 0.25 1.25586 0.25 2.1875V13.4375C0.25 14.3691 1.00586 15.125 1.9375 15.125H2.5C2.5 16.9883 4.01172 18.5 5.875 18.5C7.73828 18.5 9.25 16.9883 9.25 15.125H13.75C13.75 16.9883 15.2617 18.5 17.125 18.5C18.9883 18.5 20.5 16.9883 20.5 15.125H21.625C22.2473 15.125 22.75 14.6223 22.75 14C22.75 13.3777 22.2473 12.875 21.625 12.875V10.625V9.5V8.84258C21.625 8.24492 21.3895 7.67188 20.9676 7.25L18.25 4.53242C17.8281 4.11055 17.2551 3.875 16.6574 3.875H14.875V2.1875C14.875 1.25586 14.1191 0.5 13.1875 0.5H1.9375ZM14.875 6.125H16.6574L19.375 8.84258V9.5H14.875V6.125ZM4.1875 15.125C4.1875 14.6774 4.36529 14.2482 4.68176 13.9318C4.99823 13.6153 5.42745 13.4375 5.875 13.4375C6.32255 13.4375 6.75178 13.6153 7.06824 13.9318C7.38471 14.2482 7.5625 14.6774 7.5625 15.125C7.5625 15.5726 7.38471 16.0018 7.06824 16.3182C6.75178 16.6347 6.32255 16.8125 5.875 16.8125C5.42745 16.8125 4.99823 16.6347 4.68176 16.3182C4.36529 16.0018 4.1875 15.5726 4.1875 15.125ZM17.125 13.4375C17.5726 13.4375 18.0018 13.6153 18.3182 13.9318C18.6347 14.2482 18.8125 14.6774 18.8125 15.125C18.8125 15.5726 18.6347 16.0018 18.3182 16.3182C18.0018 16.6347 17.5726 16.8125 17.125 16.8125C16.6774 16.8125 16.2482 16.6347 15.9318 16.3182C15.6153 16.0018 15.4375 15.5726 15.4375 15.125C15.4375 14.6774 15.6153 14.2482 15.9318 13.9318C16.2482 13.6153 16.6774 13.4375 17.125 13.4375Z" fill="#9DB2CE"/>
</svg>
