<svg width="18" height="18" viewBox="0 0 18 18" fill="none" xmlns="http://www.w3.org/2000/svg">
<g clip-path="url(#clip0_514_759)">
<path d="M9 0C11.3869 0 13.6761 0.948212 15.364 2.63604C17.0518 4.32387 18 6.61305 18 9C18 11.3869 17.0518 13.6761 15.364 15.364C13.6761 17.0518 11.3869 18 9 18C6.61305 18 4.32387 17.0518 2.63604 15.364C0.948212 13.6761 0 11.3869 0 9C0 6.61305 0.948212 4.32387 2.63604 2.63604C4.32387 0.948212 6.61305 0 9 0ZM8.15625 4.21875V9C8.15625 9.28125 8.29688 9.54492 8.53242 9.70312L11.9074 11.9531C12.2941 12.2133 12.818 12.1078 13.0781 11.7176C13.3383 11.3273 13.2328 10.807 12.8426 10.5469L9.84375 8.55V4.21875C9.84375 3.75117 9.46758 3.375 9 3.375C8.53242 3.375 8.15625 3.75117 8.15625 4.21875Z" fill="#9CA3AF"/>
</g>
<defs>
<clipPath id="clip0_514_759">
<path d="M0 0H18V18H0V0Z" fill="white"/>
</clipPath>
</defs>
</svg>
