<svg width="24" height="24" viewBox="0 0 24 24" fill="none" xmlns="http://www.w3.org/2000/svg">
<path d="M20.8302 2.00331C20.7489 2.00331 20.6697 2.00759 20.5883 2.00759H3.7343C3.41747 2.00759 3.04926 1.96477 2.74956 2.08252C2.28287 2.26662 2.00244 2.70974 2.00028 3.20857C2.00028 3.31989 2.00885 3.42907 2.00885 3.54039V18.4273C2.00885 18.6864 1.99814 18.9454 2.00028 19.2023C2.00885 19.8574 2.53332 20.384 3.18842 20.3904C3.37895 20.3926 3.56519 20.3969 3.75571 20.3969H9.11627C9.08844 20.354 9.05847 20.3198 9.03064 20.2834C9.00281 20.247 8.97498 20.2085 8.94715 20.1699C8.89149 20.0972 8.83797 20.0222 8.78659 19.9473C8.72879 19.8681 8.67313 19.7867 8.61961 19.7054C7.64341 18.254 7.01403 16.4279 7.44862 14.6788C7.65628 13.846 8.09299 13.1032 8.68597 12.5123C8.70309 12.4952 8.71808 12.4802 8.7352 12.4631C8.76945 12.4309 8.80156 12.3988 8.83796 12.3667C8.90646 12.3046 8.97711 12.2426 9.04989 12.1848C9.10341 12.1398 9.15907 12.097 9.21473 12.0563C9.234 12.0413 9.25326 12.0285 9.27039 12.0156C9.30893 11.9878 9.34746 11.9621 9.38599 11.9364C9.46306 11.8829 9.54227 11.8337 9.62362 11.7866C9.64288 11.7737 9.66429 11.763 9.68355 11.7502C9.70924 11.7352 9.73493 11.7202 9.76062 11.7074C9.812 11.6795 9.86338 11.6517 9.9169 11.6239C9.94259 11.611 9.97042 11.5982 9.99611 11.5854C10.0218 11.5725 10.0496 11.5597 10.0753 11.5468C10.101 11.534 10.1288 11.5233 10.1567 11.5104C10.1845 11.4976 10.2102 11.4869 10.238 11.4762C10.2658 11.4655 10.2915 11.4548 10.3194 11.4419L10.3836 11.4162C10.4028 11.4077 10.4243 11.4012 10.4457 11.3927C10.4478 11.3927 10.4478 11.3905 10.4499 11.3905C10.4713 11.3841 10.4906 11.3756 10.512 11.3691C10.5977 11.3392 10.6833 11.3135 10.7711 11.2899C10.7925 11.2835 10.8139 11.2771 10.8374 11.2728C10.8524 11.2685 10.8652 11.2664 10.8802 11.2621C10.8824 11.2621 10.8845 11.26 10.8867 11.26C10.8931 11.2578 10.8974 11.2578 10.9038 11.2557C10.9081 11.2535 10.9145 11.2535 10.9188 11.2514H10.923C10.9338 11.2493 10.9445 11.2514 10.9552 11.2493C10.983 11.2428 11.0087 11.2343 11.0365 11.2343L11.0429 11.23C11.0451 11.23 11.0472 11.2278 11.0494 11.2257C11.0515 11.2257 11.0536 11.2236 11.0558 11.2236C11.0708 11.2193 11.0879 11.2171 11.1029 11.2129C11.1371 11.2064 11.1714 11.2 11.2056 11.1936C11.2163 11.1915 11.2249 11.1893 11.2356 11.1872C11.2399 11.1872 11.2442 11.185 11.2484 11.185C11.2613 11.1829 11.2741 11.1829 11.287 11.1807C11.3148 11.1765 11.3426 11.17 11.3683 11.17C11.394 11.17 11.4218 11.1615 11.4475 11.1593C11.4497 11.1593 11.4518 11.1572 11.4561 11.1572C11.4625 11.1572 11.4668 11.1551 11.4732 11.1551C11.4903 11.1529 11.5096 11.1508 11.5267 11.1486C11.531 11.1486 11.5353 11.1486 11.5396 11.1465C11.5481 11.1465 11.5567 11.1444 11.5653 11.1444C11.5824 11.1422 11.5995 11.1422 11.6166 11.1401C11.6316 11.1379 11.6445 11.1379 11.6595 11.1358H11.6723C11.7001 11.1337 11.7258 11.1315 11.7537 11.1315H11.7622C11.7815 11.1315 11.7986 11.1294 11.8179 11.1294C11.8371 11.1294 11.8586 11.1272 11.8778 11.1272C11.8928 11.1272 11.9099 11.1272 11.9249 11.1251H12.0469H12.0512H12.0812H12.0962H12.1069C12.1261 11.1251 12.1476 11.1272 12.1668 11.1272C12.1839 11.1272 12.2011 11.1294 12.2182 11.1294H12.2332C12.246 11.1294 12.261 11.1315 12.2739 11.1315H12.2803H12.2867C12.2996 11.1315 12.3103 11.1337 12.3231 11.1337C12.3552 11.1358 12.3873 11.1379 12.4216 11.1422C12.4387 11.1444 12.4537 11.1444 12.4708 11.1465C12.4879 11.1486 12.5029 11.1508 12.52 11.1508C12.5265 11.1508 12.535 11.1529 12.5415 11.1529C12.5479 11.1551 12.5564 11.1551 12.5629 11.1572C12.5693 11.1593 12.5778 11.1615 12.5843 11.1615C12.5907 11.1615 12.5993 11.1658 12.6057 11.1658C12.869 11.2086 13.1301 11.2557 13.3828 11.3327C13.3914 11.3349 13.4021 11.337 13.4106 11.3413C13.4128 11.3413 13.4149 11.3413 13.417 11.3434C13.4192 11.3434 13.4213 11.3456 13.4235 11.3456C13.4384 11.3499 13.4513 11.3541 13.4663 11.3584C13.5776 11.3948 13.6889 11.4355 13.7981 11.4805C13.8067 11.4847 13.8152 11.4869 13.8238 11.4912C13.8345 11.4954 13.8452 11.4997 13.8538 11.504C13.858 11.5061 13.8623 11.5083 13.8666 11.5104C13.8816 11.5168 13.8944 11.5233 13.9094 11.5297C13.9308 11.5383 13.9522 11.549 13.9736 11.5597C13.9865 11.5639 13.9972 11.5704 14.0079 11.5768C14.0122 11.5789 14.0165 11.5811 14.0229 11.5832L14.0743 11.6089C14.0871 11.6153 14.1021 11.6217 14.1149 11.6303C14.1278 11.6367 14.1428 11.6432 14.1556 11.6517C14.1834 11.6667 14.2091 11.6795 14.237 11.6945C14.2626 11.7095 14.2905 11.7245 14.3162 11.7395C14.3419 11.7545 14.3697 11.7695 14.3954 11.7844C14.4125 11.7951 14.4296 11.8058 14.4467 11.8166C14.481 11.838 14.5153 11.8594 14.5495 11.8829C14.5838 11.9043 14.6159 11.9279 14.6501 11.9514C15.9217 12.8313 16.6946 14.2741 16.6946 15.8219V15.8262C16.6946 16.5969 16.5361 17.3633 16.2493 18.0783C15.9838 18.7419 15.637 19.3627 15.226 19.945C15.1725 20.0199 15.1189 20.097 15.0654 20.1698C15.0098 20.2447 14.9541 20.3089 14.8963 20.3946H20.6444C20.7086 20.3946 20.7707 20.3882 20.8349 20.3882C21.171 20.3839 21.4964 20.2426 21.7169 19.9857C21.9353 19.731 22.0059 19.4248 22.0059 19.0973V3.2556C22.0273 3.23419 22.0188 3.2085 22.0188 3.18067C22.0059 2.52773 21.4836 2.00968 20.8306 2.00326L20.8302 2.00331ZM14.3607 8.75117C14.3607 8.92672 14.1744 9.02305 14.0288 8.94598C13.9389 8.89889 13.8512 8.85393 13.7634 8.80897C13.179 8.50285 12.5924 8.18602 12.0059 7.89059C11.9545 7.91628 11.9031 7.94197 11.8517 7.96979C11.2288 8.29733 10.6058 8.61843 9.98284 8.946C9.83513 9.02307 9.65102 8.92887 9.65102 8.75333V3.51687C9.65102 3.39698 9.7495 3.29209 9.86938 3.29209H14.1382C14.2067 3.29209 14.2602 3.31992 14.2944 3.35845C14.333 3.39484 14.3587 3.44836 14.3587 3.51901V8.75116L14.3607 8.75117Z" fill="#DC4326"/>
<path d="M15.7856 15.3081C15.7834 15.2888 15.7791 15.2717 15.777 15.2524C15.7706 15.2118 15.7642 15.1732 15.7556 15.1326C15.7406 15.0491 15.7213 14.9656 15.6999 14.8842C15.6571 14.7215 15.6057 14.561 15.5458 14.4025C15.5372 14.3811 15.5287 14.3619 15.5201 14.3405C15.5073 14.3105 15.4944 14.2805 15.4794 14.2506C15.443 14.1756 15.4067 14.1007 15.3681 14.0279C15.2889 13.8823 15.2033 13.7411 15.1069 13.6062C15.0813 13.5698 15.0556 13.5356 15.0299 13.4992C15.0277 13.4949 15.0235 13.4906 15.0213 13.4885C15.0192 13.4842 15.0149 13.4799 15.0106 13.4756C14.9592 13.4114 14.9057 13.3493 14.85 13.2872C14.7387 13.1652 14.6231 13.0496 14.499 12.9404C14.4669 12.9126 14.4326 12.8826 14.3983 12.8548C14.3898 12.8484 14.3298 12.7949 14.3256 12.7927C14.3256 12.7949 14.332 12.7991 14.3405 12.8077C14.3898 12.8527 14.287 12.7692 14.2699 12.7542C14.2378 12.7306 14.2078 12.7092 14.1736 12.6878C14.0366 12.5936 13.8953 12.5101 13.7475 12.4331C13.6748 12.3945 13.5998 12.3581 13.5228 12.3239C13.5185 12.3217 13.5099 12.3175 13.5035 12.3132C13.4992 12.311 13.4907 12.3089 13.48 12.3046C13.4436 12.2896 13.4072 12.2746 13.3708 12.2618C13.2124 12.2019 13.0518 12.1526 12.887 12.1141C12.8035 12.0948 12.72 12.0777 12.6365 12.0606C12.5937 12.052 12.5466 12.0499 12.5059 12.0392C12.4931 12.037 12.4824 12.037 12.4695 12.0349C12.294 12.0156 12.1184 12.0071 11.9429 12.0113C11.8551 12.0135 11.7674 12.0156 11.6796 12.0242C11.6346 12.0285 11.5875 12.0327 11.5426 12.037C11.5233 12.0392 11.5019 12.0413 11.4826 12.0434C11.457 12.0456 11.4527 12.0434 11.4591 12.0413C11.427 12.0477 11.3906 12.0584 11.3756 12.0606C11.3349 12.067 11.2964 12.0756 11.2579 12.0841C11.1744 12.1012 11.0909 12.1205 11.0095 12.1441C10.8468 12.189 10.6884 12.2447 10.5322 12.3046C10.5172 12.311 10.5043 12.3175 10.4893 12.3239C10.453 12.3389 10.4187 12.356 10.3823 12.3731C10.3074 12.4095 10.2346 12.4481 10.1618 12.4887C10.0184 12.5701 9.87709 12.6578 9.74436 12.7542C9.7251 12.7692 9.70583 12.782 9.68656 12.797C9.68014 12.8013 9.66944 12.812 9.66087 12.8184L9.67372 12.8056C9.68228 12.797 9.6887 12.7927 9.6887 12.7906C9.68442 12.7927 9.62662 12.8441 9.61592 12.8526C9.5517 12.9062 9.48961 12.9597 9.42967 13.0153C9.30979 13.1267 9.19419 13.2465 9.08715 13.3707C9.05932 13.4028 9.03149 13.4371 9.00366 13.4713C8.99938 13.4756 8.9951 13.4799 8.99296 13.4842L8.99082 13.4863C8.98868 13.4885 8.98654 13.4927 8.98225 13.497C8.93302 13.5634 8.88592 13.6297 8.83882 13.6982C8.74677 13.8353 8.66328 13.9808 8.59049 14.1285C8.5541 14.1992 8.52199 14.2741 8.48774 14.3469C8.48131 14.364 8.47489 14.3811 8.46633 14.3983C8.45134 14.4347 8.4385 14.4711 8.42565 14.5096C8.36785 14.668 8.32075 14.8307 8.28436 14.9955C8.26509 15.079 8.25439 15.1625 8.23941 15.2481C8.23941 15.2524 8.23727 15.261 8.23727 15.2696C8.23727 15.2738 8.23298 15.2803 8.23084 15.2888H8.2287C8.22656 15.3017 8.22228 15.3145 8.22442 15.3209C8.22014 15.353 8.218 15.3852 8.21586 15.4173C8.19873 15.6014 8.19231 15.7876 8.19873 15.9739C8.20087 16.083 8.20944 16.1922 8.218 16.2993C8.22228 16.3442 8.22656 16.3892 8.23298 16.4363C8.23512 16.4427 8.24583 16.5219 8.24797 16.5412C8.31647 16.9608 8.43207 17.3718 8.58621 17.77C8.59691 17.7978 8.60976 17.8278 8.62046 17.8556C8.6226 17.8578 8.62474 17.8642 8.62688 17.8706V17.8727V17.8749C8.62688 17.877 8.62902 17.8792 8.62902 17.8834C8.63116 17.8877 8.6333 17.892 8.6333 17.8963C8.6333 17.8984 8.63545 17.8984 8.63545 17.9006C8.63973 17.9091 8.64187 17.9177 8.64401 17.9198C8.65471 17.9434 8.66328 17.9648 8.67398 17.9883C8.7168 18.0847 8.76175 18.1789 8.80885 18.2731C8.9009 18.4593 9.00152 18.6413 9.10855 18.8211C9.21345 18.9966 9.32476 19.17 9.44037 19.3391C9.49817 19.4226 9.55597 19.504 9.61591 19.5853C9.64802 19.6281 9.67799 19.671 9.7101 19.7116C9.72295 19.7266 9.73365 19.7437 9.7465 19.7587L9.74864 19.7609C9.74864 19.763 9.75078 19.763 9.75078 19.7652L9.75292 19.7673C10.2624 20.4159 10.8383 21.0132 11.4613 21.5548C11.5726 21.6533 11.686 21.7475 11.8016 21.8417C11.8487 21.8802 11.898 21.9188 11.9451 21.9573C11.9536 21.9637 11.9643 21.9723 11.9729 21.9787C11.975 21.9808 11.9815 21.9851 11.9943 21.9937C11.9964 21.9958 12.0007 21.998 12.0029 22.0001C12.0093 21.9958 12.0157 21.9915 12.0221 21.9851C12.0371 21.9744 12.05 21.9616 12.065 21.9509C12.1484 21.8845 12.2319 21.816 12.3133 21.7475C12.735 21.3964 13.1353 21.0196 13.5121 20.6193C13.7476 20.3689 13.9745 20.1098 14.1886 19.8401C14.2078 19.8144 14.2271 19.7909 14.2485 19.7652C14.2485 19.763 14.2507 19.763 14.2507 19.763L14.2528 19.7609C14.2549 19.7587 14.2549 19.7566 14.2571 19.7545C14.2592 19.7523 14.2592 19.7502 14.2614 19.7502L14.2635 19.748C14.2635 19.7459 14.2656 19.7459 14.2656 19.7438L14.2678 19.7416C14.2721 19.7373 14.2742 19.7331 14.2785 19.7266C14.3213 19.671 14.3641 19.6132 14.4048 19.5575C14.4926 19.4376 14.5782 19.3156 14.6595 19.1914C14.8308 18.9324 14.9892 18.6648 15.1327 18.3887C15.2033 18.2516 15.2697 18.1125 15.3339 17.9712C15.3424 17.9498 15.3532 17.9284 15.3617 17.907C15.3617 17.907 15.3617 17.9048 15.3639 17.9048C15.3639 17.9048 15.3639 17.9027 15.366 17.9027C15.366 17.9027 15.3681 17.9006 15.3681 17.8984V17.8963C15.3703 17.8941 15.3703 17.892 15.3724 17.8877C15.3746 17.8856 15.3746 17.8834 15.3767 17.8813H15.3788C15.3788 17.8792 15.3853 17.8792 15.3853 17.877C15.3853 17.8749 15.3831 17.8749 15.3831 17.8749C15.3895 17.8577 15.3938 17.8406 15.4002 17.8235C15.4281 17.755 15.4538 17.6843 15.4795 17.6137C15.5865 17.314 15.6743 17.0057 15.7342 16.691C15.7492 16.6118 15.762 16.5326 15.7727 16.4556C15.7749 16.4427 15.777 16.4299 15.777 16.417C15.7813 16.3785 15.7856 16.34 15.7899 16.3036C15.8048 16.143 15.8113 15.9846 15.8134 15.824C15.8156 15.6528 15.8048 15.4794 15.7856 15.3081ZM13.1439 15.8454C13.1246 16.3657 12.7564 16.8409 12.2319 16.9373C11.7631 17.0229 11.2857 16.8238 11.0352 16.4128C10.7805 15.9996 10.8319 15.4644 11.1359 15.0941C11.4291 14.7344 11.9515 14.5888 12.3882 14.7537C12.8313 14.9207 13.1268 15.3274 13.1439 15.8005C13.1439 15.8091 13.146 15.8155 13.1439 15.824L13.1439 15.8454Z" fill="#DC4326"/>
</svg>
