<svg width="20" height="20" viewBox="0 0 20 20" fill="none" xmlns="http://www.w3.org/2000/svg">
<path d="M10.6234 4.41926H17.7028C18.9208 4.41926 19.9124 3.42766 19.9124 2.20963C19.9124 0.991603 18.9208 0 17.7028 0H10.6234C9.40542 0 8.41382 0.991603 8.41382 2.20963C8.41382 3.42766 9.40542 4.41926 10.6234 4.41926Z" fill="#969696"/>
<path d="M17.7028 7.79053H10.6234C9.40542 7.79053 8.41382 8.78213 8.41382 10.0002C8.41382 11.2182 9.40542 12.2098 10.6234 12.2098H17.7028C18.9208 12.2098 19.9124 11.2182 19.9124 10.0002C19.9124 8.78213 18.9208 7.79053 17.7028 7.79053Z" fill="#969696"/>
<path d="M16.7028 15.5806H10.6234C9.40542 15.5806 8.41382 16.5722 8.41382 17.7902C8.41382 19.0082 9.40542 19.9998 10.6234 19.9998H16.7028C17.9208 19.9998 18.9124 19.0082 18.9124 17.7902C18.9124 16.5437 17.9208 15.5806 16.7028 15.5806Z" fill="#969696"/>
<path d="M3.82446 0H2.20963C0.991603 0 0 0.991603 0 2.20963C0 3.42766 0.991603 4.41926 2.20963 4.41926H3.82446C5.04249 4.41926 6.03409 3.42766 6.03409 2.20963C6.03409 0.991603 5.04249 0 3.82446 0Z" fill="#969696"/>
<path d="M3.82446 7.79053H2.20963C0.991603 7.79053 0 8.78213 0 10.0002C0 11.2182 0.991603 12.2098 2.20963 12.2098H3.82446C5.04249 12.2098 6.03409 11.2182 6.03409 10.0002C6.03409 8.78213 5.04249 7.79053 3.82446 7.79053Z" fill="#969696"/>
<path d="M3.82446 15.5806H2.20963C0.991603 15.5806 0 16.5722 0 17.7902C0 19.0082 0.991603 19.9998 2.20963 19.9998H3.82446C5.04249 19.9998 6.03409 19.0082 6.03409 17.7902C6.03409 16.5437 5.04249 15.5806 3.82446 15.5806Z" fill="#969696"/>
</svg>
