<svg width="24" height="24" viewBox="0 0 24 24" fill="none" xmlns="http://www.w3.org/2000/svg">
<path d="M3.88044 2H8.99735C10.0359 2 10.8778 3.03853 10.8778 3.88044V8.99735C10.8778 10.0359 10.0359 10.8778 8.99735 10.8778H3.88044C2.84191 10.8778 2 9.83926 2 8.99735V3.88044C2 2.84191 2.84191 2 3.88044 2Z" fill="#969696"/>
<path d="M15.3387 2H20.4556C21.4941 2 22.336 3.03853 22.336 3.88044V8.99735C22.336 10.0359 21.4941 10.8778 20.4556 10.8778H15.3387C14.3002 10.8778 13.4583 9.83926 13.4583 8.99735V3.88044C13.4583 2.84191 14.3002 2 15.3387 2Z" fill="#969696"/>
<path d="M3.88044 13.1221H8.99735C10.0359 13.1221 10.8778 14.1606 10.8778 15.0025V20.1194C10.8778 21.158 10.0359 21.9999 8.99735 21.9999H3.88044C2.84191 21.9999 2 20.9613 2 20.1194V15.0025C2 13.964 2.84191 13.1221 3.88044 13.1221Z" fill="#969696"/>
<path d="M21.7436 17.0537H18.4191V13.7291C18.4191 13.4355 18.1809 13.1973 17.887 13.1973C17.5934 13.1973 17.3552 13.4355 17.3552 13.7291V17.0537H14.0307C13.737 17.0537 13.4988 17.2919 13.4988 17.5857C13.4988 17.8794 13.737 18.1176 14.0307 18.1176H17.3552V21.4421C17.3552 21.7358 17.5934 21.974 17.887 21.974C18.1809 21.974 18.4191 21.7358 18.4191 21.4421V18.1176H21.7436C22.0373 18.1176 22.2755 17.8794 22.2755 17.5857C22.2755 17.2919 22.0373 17.0537 21.7436 17.0537Z" fill="#969696"/>
</svg>
