<svg width="23" height="24" viewBox="0 0 23 24" fill="none" xmlns="http://www.w3.org/2000/svg">
<path d="M4.00354 12.1013H18.5351C18.7123 12.1013 18.8642 11.9495 18.8642 11.7722V10.5064C18.8642 10.3291 18.7123 10.1772 18.5351 10.1772H17.2186C16.6868 7.5949 14.4844 5.59496 11.8009 5.36712V3.18992H14.5603C14.7629 3.18992 14.8895 2.93669 14.7629 2.78482L13.8767 1.59496L14.7629 0.4051C14.8895 0.227801 14.7629 0 14.5603 0L11.1173 0.000176592C10.8895 0.000176592 10.7376 0.177476 10.7376 0.379847V5.39246C8.05417 5.62026 5.85161 7.62033 5.31997 10.2025H4.00348C3.82618 10.2025 3.67432 10.3544 3.67432 10.5317V11.7975C3.67432 11.9496 3.82619 12.1014 4.00348 12.1014L4.00354 12.1013Z" fill="#969696"/>
<path d="M22.5097 23.519C22.0541 22.481 20.0793 21.595 17.3199 21.038V13.2913H5.21877V21.038C2.45935 21.595 0.484638 22.481 0.0289463 23.519C-0.0722417 23.7468 0.104881 24 0.358111 24H22.1807C22.4339 24 22.611 23.7468 22.5099 23.519H22.5097ZM13.9022 15.0633C13.9022 14.9367 14.0034 14.8608 14.1048 14.8608H15.2694C15.396 14.8608 15.472 14.962 15.472 15.0633V16.228C15.472 16.3546 15.3708 16.4305 15.2694 16.4305H14.1048C13.9782 16.4305 13.9022 16.3293 13.9022 16.228V15.0633ZM13.9022 18.0253C13.9022 17.8987 14.0034 17.8228 14.1048 17.8228H15.2694C15.396 17.8228 15.472 17.924 15.472 18.0253V19.19C15.472 19.3166 15.3708 19.3925 15.2694 19.3925H14.1048C13.9782 19.3925 13.9022 19.2913 13.9022 19.19V18.0253ZM10.4592 15.0633C10.4592 14.9367 10.5604 14.8608 10.6618 14.8608H11.8264C11.953 14.8608 12.029 14.962 12.029 15.0633V16.228C12.029 16.3546 11.9278 16.4305 11.8264 16.4305H10.6618C10.5352 16.4305 10.4592 16.3293 10.4592 16.228V15.0633ZM7.04163 15.0633C7.04163 14.9367 7.14282 14.8608 7.24418 14.8608H8.40882C8.53543 14.8608 8.61137 14.962 8.61137 15.0633V16.228C8.61137 16.3546 8.51018 16.4305 8.40882 16.4305H7.24418C7.11756 16.4305 7.04163 16.3293 7.04163 16.228V15.0633ZM7.04163 18.0253C7.04163 17.8987 7.14282 17.8228 7.24418 17.8228H8.40882C8.53543 17.8228 8.61137 17.924 8.61137 18.0253V19.19C8.61137 19.3166 8.51018 19.3925 8.40882 19.3925H7.24418C7.11756 19.3925 7.04163 19.2913 7.04163 19.19V18.0253ZM10.4592 20.5317V18.0253C10.4592 17.8987 10.5604 17.8228 10.6618 17.8228H11.8264C11.953 17.8228 12.029 17.924 12.029 18.0253V20.5317H11.2188H10.4592Z" fill="#969696"/>
</svg>
