<svg width="23" height="20" viewBox="0 0 23 20" fill="none" xmlns="http://www.w3.org/2000/svg">
<path d="M9.23096 0H12.8207V8.2052H9.23096V0Z" fill="#DC4326"/>
<path d="M1.7951 20H20.2565C20.7317 19.9973 21.1866 19.8074 21.5226 19.4713C21.8586 19.1353 22.0487 18.6803 22.0513 18.2052V1.7948C22.0487 1.31968 21.8586 0.864696 21.5226 0.528655C21.1866 0.192636 20.7318 0.00272525 20.2565 0H14.3589V8.97443C14.3564 9.17755 14.2745 9.37175 14.1308 9.5153C13.987 9.65901 13.793 9.74092 13.5897 9.74366H8.4614H8.46157C8.25828 9.74092 8.06425 9.65901 7.92052 9.5153C7.77681 9.37176 7.6949 9.17756 7.69233 8.97443V0H1.7948C1.31955 0.00274723 0.864696 0.192649 0.528655 0.528655C0.192636 0.864674 0.00254943 1.31968 0 1.7948V18.2052C0.00257549 18.6803 0.192649 19.1353 0.528655 19.4713C0.864674 19.8074 1.3195 19.9973 1.7948 20H1.7951ZM13.0772 15.3847H16.1541C16.4288 15.3847 16.6827 15.5313 16.8201 15.7693C16.9576 16.0072 16.9576 16.3005 16.8201 16.5385C16.6827 16.7765 16.4288 16.9231 16.1541 16.9231H13.0772C12.8023 16.9231 12.5484 16.7765 12.411 16.5385C12.2736 16.3005 12.2736 16.0072 12.411 15.7693C12.5484 15.5313 12.8023 15.3847 13.0772 15.3847Z" fill="#DC4326"/>
</svg>
