<svg width="24" height="26" viewBox="0 0 24 26" fill="none" xmlns="http://www.w3.org/2000/svg">
<path d="M11.9998 14.7693C12.28 14.7693 12.5448 14.6424 12.7203 14.4236C13.2132 13.8083 17.5382 8.33134 17.5382 5.5384C17.5382 2.48448 15.0538 0 11.9998 0C8.9459 0 6.46143 2.48448 6.46143 5.5384C6.46143 8.33108 10.7864 13.808 11.2793 14.4236C11.4549 14.6424 11.7196 14.7693 11.9998 14.7693ZM11.9998 6.46172C11.4907 6.46172 11.0768 6.04778 11.0768 5.53865C11.0768 5.02952 11.4907 4.61558 11.9998 4.61558C12.509 4.61558 12.9229 5.02952 12.9229 5.53865C12.9229 6.04778 12.509 6.46172 11.9998 6.46172Z" fill="#969696"/>
<path d="M23.0767 24.1538H0.923067C0.413524 24.1538 0 24.5673 0 25.0769C0 25.5864 0.413524 25.9999 0.923067 25.9999H23.0767C23.5862 25.9999 23.9997 25.5864 23.9997 25.0769C23.9997 24.5673 23.5862 24.1538 23.0767 24.1538Z" fill="#969696"/>
<path d="M1.19359 22.9602C1.37346 23.1407 1.60979 23.2308 1.84612 23.2308C2.08244 23.2308 2.31877 23.1407 2.49864 22.9602L2.76918 22.6899L3.03971 22.9605C3.21959 23.1407 3.45591 23.2308 3.69224 23.2308C3.92857 23.2308 4.1649 23.1407 4.34477 22.9602C4.70513 22.5999 4.70513 22.0156 4.34477 21.655L4.07444 21.3846L4.34497 21.1141C4.70534 20.7538 4.70534 20.1694 4.34497 19.8088C3.98502 19.4485 3.39965 19.4485 3.0397 19.8088L2.76917 20.0794L2.49864 19.8088C2.13869 19.4485 1.55331 19.4485 1.19337 19.8088C0.833004 20.1692 0.833004 20.7535 1.19337 21.1141L1.4639 21.3846L1.19337 21.6552C0.833004 22.0155 0.833015 22.5999 1.19359 22.9602Z" fill="#969696"/>
<path d="M5.80906 22.9602C5.98894 23.1407 6.22527 23.2308 6.46159 23.2308C6.69792 23.2308 6.93425 23.1407 7.11412 22.9602L7.38466 22.6899L7.65519 22.9605C7.83506 23.1407 8.07139 23.2308 8.30772 23.2308C8.54404 23.2308 8.78038 23.1407 8.96025 22.9602C9.32061 22.5999 9.32061 22.0156 8.96025 21.655L8.68992 21.3846L8.96045 21.1141C9.32082 20.7538 9.32082 20.1694 8.96045 19.8088C8.6005 19.4485 8.01513 19.4485 7.65518 19.8088L7.38465 20.0794L7.11412 19.8088C6.75416 19.4485 6.16879 19.4485 5.80885 19.8088C5.44848 20.1692 5.44848 20.7535 5.80885 21.1141L6.07938 21.3846L5.80885 21.6552C5.44848 22.0155 5.44849 22.5999 5.80906 22.9602Z" fill="#969696"/>
<path d="M13.5755 19.8091C13.2151 19.4487 12.6302 19.4487 12.2702 19.8091L11.9999 20.0794L11.7294 19.8088C11.3694 19.4485 10.784 19.4485 10.4241 19.8088C10.0637 20.1692 10.0637 20.7535 10.4241 21.1141L10.6946 21.3847L10.4241 21.6552C10.0637 22.0155 10.0637 22.5999 10.4241 22.9605C10.6042 23.1407 10.8405 23.2308 11.0768 23.2308C11.3132 23.2308 11.5495 23.1407 11.7294 22.9602L11.9999 22.6899L12.2704 22.9605C12.4503 23.1407 12.6866 23.2308 12.9229 23.2308C13.1593 23.2308 13.3952 23.1407 13.5755 22.9602C13.9358 22.5999 13.9358 22.0156 13.5755 21.655L13.3051 21.3847L13.5757 21.1141C13.936 20.7538 13.9361 20.1694 13.5755 19.8091Z" fill="#969696"/>
<path d="M16.8859 19.8091L16.6154 20.0794L16.3448 19.8088C15.9845 19.4485 15.4001 19.4485 15.0396 19.8088C14.6792 20.1692 14.6792 20.7535 15.0396 21.1141L15.3101 21.3847L15.0396 21.6552C14.6792 22.0155 14.6792 22.5999 15.0396 22.9605C15.2201 23.1407 15.456 23.2308 15.6923 23.2308C15.9286 23.2308 16.1645 23.1407 16.3448 22.9602L16.6154 22.6899L16.8859 22.9605C17.0662 23.1407 17.3021 23.2308 17.5384 23.2308C17.7748 23.2308 18.0107 23.1407 18.191 22.9602C18.5513 22.5999 18.5513 22.0156 18.191 21.655L17.9206 21.3847L18.1912 21.1141C18.5515 20.7538 18.5515 20.1694 18.1912 19.8088C17.8306 19.4485 17.2463 19.4485 16.8859 19.8091Z" fill="#969696"/>
<path d="M19.655 22.9602C19.8353 23.1407 20.0712 23.2308 20.3075 23.2308C20.5439 23.2308 20.7798 23.1407 20.9601 22.9602L21.2306 22.6899L21.5011 22.9605C21.6814 23.1407 21.9173 23.2308 22.1537 23.2308C22.39 23.2308 22.6259 23.1407 22.8062 22.9602C23.1666 22.5999 23.1666 22.0156 22.8062 21.655L22.5359 21.3846L22.8064 21.1141C23.1668 20.7538 23.1668 20.1694 22.8064 19.8088C22.446 19.4485 21.8617 19.4485 21.5011 19.8088L21.2306 20.0794L20.9601 19.8088C20.5997 19.4485 20.0154 19.4485 19.6548 19.8088C19.2944 20.1692 19.2944 20.7535 19.6548 21.1141L19.9253 21.3846L19.6548 21.6552C19.2944 22.0155 19.2944 22.5999 19.655 22.9602Z" fill="#969696"/>
</svg>
