<svg width="39" height="37" viewBox="0 0 39 37" fill="none" xmlns="http://www.w3.org/2000/svg">
<path d="M14.5437 3.31738L8.89651 8.76238" stroke="white" stroke-width="1.5" stroke-miterlimit="10" stroke-linecap="round" stroke-linejoin="round"/>
<path d="M24.4961 3.31738L30.1433 8.76238" stroke="white" stroke-width="1.5" stroke-miterlimit="10" stroke-linecap="round" stroke-linejoin="round"/>
<path d="M3.91998 12.0918C3.91998 9.3168 5.46438 9.0918 7.38318 9.0918H31.6568C33.5756 9.0918 35.12 9.3168 35.12 12.0918C35.12 15.3168 33.5756 15.0918 31.6568 15.0918H7.38318C5.46438 15.0918 3.91998 15.3168 3.91998 12.0918Z" stroke="white" stroke-width="1.5"/>
<path d="M16.0251 21.3184V26.6434" stroke="white" stroke-width="1.5" stroke-linecap="round"/>
<path d="M23.2011 21.3184V26.6434" stroke="white" stroke-width="1.5" stroke-linecap="round"/>
<path d="M6.25998 15.3174L8.45958 28.2774C8.95878 31.1874 10.16 33.3174 14.6216 33.3174H24.0284C28.88 33.3174 29.5976 31.2774 30.1592 28.4574L32.78 15.3174" stroke="white" stroke-width="1.5" stroke-linecap="round"/>
</svg>
