<svg width="24" height="24" viewBox="0 0 24 24" fill="none" xmlns="http://www.w3.org/2000/svg">
<path d="M9.14511 2.77441H4.17969C3.40428 2.77441 2.77344 3.40526 2.77344 4.18066V9.14627C2.77344 9.92168 3.40428 10.5525 4.17969 10.5525H9.14516C9.92056 10.5525 10.5514 9.92168 10.5514 9.14627V4.18066C10.5514 3.40526 9.92052 2.77441 9.14511 2.77441ZM4.17969 9.14623V4.18066H9.14516L9.1453 9.14627L4.17969 9.14623ZM14.7474 10.5525H19.7128C20.4883 10.5525 21.1191 9.92163 21.1191 9.14623V4.18066C21.1191 3.40526 20.4883 2.77441 19.7128 2.77441H14.7474C13.972 2.77441 13.3411 3.40526 13.3411 4.18066V9.14627C13.3411 9.92163 13.972 10.5525 14.7474 10.5525ZM14.7474 4.18066H19.7128L19.713 9.14627H14.7474V4.18066ZM9.14511 13.3419H4.17969C3.40428 13.3419 2.77344 13.9728 2.77344 14.7482V19.7138C2.77344 20.4892 3.40428 21.1201 4.17969 21.1201H9.14516C9.92056 21.1201 10.5514 20.4892 10.5514 19.7138V14.7482C10.5514 13.9728 9.92052 13.3419 9.14511 13.3419ZM4.17969 19.7138V14.7482H9.14516L9.1453 19.7138L4.17969 19.7138ZM21.0228 20.0293L20.0464 19.053C20.4548 18.449 20.6727 17.7363 20.6719 17.0072C20.6719 14.9862 19.0276 13.342 17.0065 13.342C14.9854 13.342 13.3412 14.9862 13.3412 17.0072C13.3412 19.0285 14.9855 20.6728 17.0065 20.6728C17.7356 20.6737 18.4481 20.4558 19.0521 20.0473L20.0285 21.0237C20.3183 21.3136 20.8085 21.2891 21.0689 20.9729C21.296 20.6972 21.2752 20.2818 21.0228 20.0293ZM19.2652 17.007C19.2652 18.2545 18.254 19.2658 17.0064 19.2658C15.7589 19.2658 14.7476 18.2545 14.7476 17.007C14.7476 15.7594 15.7589 14.7482 17.0064 14.7482C18.2539 14.7482 19.2652 15.7594 19.2652 17.007Z" fill="#DC4326"/>
<rect x="4" y="4.00098" width="6" height="6" fill="#DC4326"/>
<rect x="4" y="14.001" width="6" height="6" fill="#DC4326"/>
<rect x="14" y="4.00098" width="6" height="6" fill="#DC4326"/>
<circle cx="17" cy="17.001" r="3" fill="#DC4326"/>
</svg>
