<svg width="18" height="18" viewBox="0 0 18 18" fill="none" xmlns="http://www.w3.org/2000/svg">
<path fill-rule="evenodd" clip-rule="evenodd" d="M0.666626 9.01284C0.666626 4.62293 4.17496 0.666992 9.01663 0.666992C13.75 0.666992 17.3333 4.54781 17.3333 8.98781C17.3333 14.1372 13.1333 17.3337 8.99996 17.3337C7.63329 17.3337 6.11663 16.9664 4.89996 16.2487C4.47496 15.99 4.11663 15.798 3.65829 15.9482L1.97496 16.449C1.54996 16.5825 1.16663 16.2487 1.29163 15.798L1.84996 13.9286C1.94163 13.6698 1.92496 13.3944 1.79163 13.1774C1.07496 11.8588 0.666626 10.4149 0.666626 9.01284ZM7.91663 9.01284C7.91663 9.6054 8.39163 10.0811 8.98329 10.0895C9.57496 10.0895 10.05 9.6054 10.05 9.02119C10.05 8.42863 9.57496 7.95292 8.98329 7.95292C8.39996 7.94457 7.91663 8.42863 7.91663 9.01284ZM11.7583 9.02119C11.7583 9.6054 12.2333 10.0895 12.825 10.0895C13.4166 10.0895 13.8916 9.6054 13.8916 9.02119C13.8916 8.42863 13.4166 7.95292 12.825 7.95292C12.2333 7.95292 11.7583 8.42863 11.7583 9.02119ZM5.14163 10.0895C4.55829 10.0895 4.07496 9.6054 4.07496 9.02119C4.07496 8.42863 4.54996 7.95292 5.14163 7.95292C5.73329 7.95292 6.20829 8.42863 6.20829 9.02119C6.20829 9.6054 5.73329 10.0811 5.14163 10.0895Z" fill="#DC4326"/>
</svg>
