<svg width="25" height="28" viewBox="0 0 25 28" fill="none" xmlns="http://www.w3.org/2000/svg">
<path d="M22.4565 14.1111H1.56763C0.567627 14.1111 -0.0990392 15 0.0120719 15.8889L2.12318 23.8889C2.23429 24.5555 2.90096 25.1111 3.56763 25.1111H4.56763C4.56763 26.6666 5.78985 28 7.45651 28C9.01207 28 10.3454 26.6666 10.3454 25.1111H13.7898C13.7898 26.6666 15.0121 28 16.6787 28C18.2343 28 19.5676 26.6666 19.5676 25.1111H20.5676C21.3454 25.1111 21.901 24.5555 22.0121 23.8889L24.1232 15.8889C24.1232 15 23.4565 14.1111 22.4565 14.1111ZM7.45651 26.3333C6.78985 26.3333 6.23429 25.7777 6.23429 25.1111C6.23429 24.4444 6.78985 23.8889 7.45651 23.8889C8.12318 23.8889 8.67874 24.4444 8.67874 25.1111C8.67874 25.7777 8.12318 26.3333 7.45651 26.3333ZM16.5676 26.3333C15.901 26.3333 15.3454 25.7777 15.3454 25.1111C15.3454 24.4444 15.901 23.8889 16.5676 23.8889C17.2343 23.8889 17.7898 24.4444 17.7898 25.1111C17.7898 25.7777 17.2343 26.3333 16.5676 26.3333Z" fill="#DC4326"/>
<g opacity="0.5">
<path d="M4.01205 13.1111H10.1232C11.012 13.1111 11.6787 12.1111 11.4565 11L10.7898 8.22222C10.6787 7.55556 10.1232 7 9.45649 7H4.5676C3.90093 7 3.45649 7.44444 3.23427 8.22222L2.5676 11C2.34538 12.1111 3.01205 13.1111 4.01205 13.1111Z" fill="#00394D"/>
<path d="M13.2343 8.33331L12.5676 11.1111C12.3454 12.1111 13.0121 13.2222 13.9009 13.2222H20.012C20.9009 13.2222 21.5676 12.2222 21.3454 11.1111L20.6787 8.33331C20.5676 7.66664 20.012 7.11108 19.3454 7.11108H14.5676C14.0121 7.11108 13.4565 7.55553 13.2343 8.33331Z" fill="#00394D"/>
<path d="M9.0121 6.11111H15.1232C16.0121 6.11111 16.6788 5.11111 16.4565 4L15.7899 1.22222C15.6788 0.555555 15.1232 0 14.4565 0H9.67876C9.0121 0 8.56765 0.444444 8.34543 1.22222L7.67877 4C7.45654 5 8.0121 6.11111 9.0121 6.11111Z" fill="#00394D"/>
</g>
</svg>
