<svg width="36" height="36" viewBox="0 0 36 36" fill="none" xmlns="http://www.w3.org/2000/svg">
<circle cx="18" cy="18" r="18" fill="#F1F1F1"/>
<circle cx="18" cy="18" r="18" fill="#F1F1F1"/>
<path d="M14.7599 17.6001C15.6479 19.3921 17.1599 20.6321 17.9999 20.6321C18.8399 20.6321 20.3519 19.3921 21.2399 17.6001C21.7269 16.6628 21.9872 15.6243 21.9999 14.5681C21.9999 13.5072 21.5785 12.4898 20.8283 11.7397C20.0782 10.9895 19.0608 10.5681 17.9999 10.5681C16.939 10.5681 15.9216 10.9895 15.1715 11.7397C14.4213 12.4898 13.9999 13.5072 13.9999 14.5681C14.0126 15.6243 14.2729 16.6628 14.7599 17.6001ZM17.9999 12.8001C18.2372 12.8001 18.4692 12.8705 18.6666 13.0024C18.8639 13.1342 19.0177 13.3216 19.1086 13.5409C19.1994 13.7602 19.2231 14.0014 19.1768 14.2342C19.1305 14.467 19.0163 14.6808 18.8484 14.8486C18.6806 15.0165 18.4668 15.1308 18.234 15.1771C18.0012 15.2234 17.76 15.1996 17.5407 15.1088C17.3214 15.0179 17.134 14.8641 17.0021 14.6668C16.8703 14.4695 16.7999 14.2375 16.7999 14.0001C16.7999 13.6819 16.9263 13.3766 17.1514 13.1516C17.3764 12.9265 17.6816 12.8001 17.9999 12.8001ZM24.3999 16.8001H22.4399C22.3519 17.0721 22.2479 17.3441 22.1359 17.6001C21.1439 19.8321 19.2799 21.4321 17.9999 21.4321C16.7199 21.4321 14.8559 19.8321 13.8639 17.6001C13.7519 17.3441 13.6479 17.0721 13.5599 16.8001H11.5999C11.2816 16.8001 10.9764 16.9265 10.7514 17.1516C10.5263 17.3766 10.3999 17.6819 10.3999 18.0001V24.4001C10.3999 24.7184 10.5263 25.0236 10.7514 25.2486C10.9764 25.4737 11.2816 25.6001 11.5999 25.6001H24.3999C24.7182 25.6001 25.0234 25.4737 25.2484 25.2486C25.4735 25.0236 25.5999 24.7184 25.5999 24.4001V18.0001C25.5999 17.6819 25.4735 17.3766 25.2484 17.1516C25.0234 16.9265 24.7182 16.8001 24.3999 16.8001ZM18.3999 22.1521C18.3572 22.2485 18.2802 22.3255 18.1839 22.3681C18.1339 22.38 18.0819 22.38 18.0319 22.3681C17.9794 22.3688 17.9274 22.3584 17.8792 22.3377C17.831 22.3171 17.7876 22.2865 17.7519 22.2481C17.7107 22.2196 17.6759 22.1829 17.6497 22.1402C17.6236 22.0974 17.6066 22.0498 17.5999 22.0001C17.5993 21.9477 17.6096 21.8956 17.6303 21.8474C17.6509 21.7992 17.6815 21.7558 17.7199 21.7201C17.7537 21.6796 17.798 21.6492 17.8479 21.6321C17.9204 21.6018 18.0004 21.5939 18.0774 21.6096C18.1545 21.6253 18.225 21.6638 18.2799 21.7201C18.3183 21.7558 18.3489 21.7992 18.3695 21.8474C18.3902 21.8956 18.4005 21.9477 18.3999 22.0001C18.4118 22.0501 18.4118 22.1021 18.3999 22.1521Z" fill="#2B3344"/>
<path d="M14.7599 17.6001C15.6479 19.3921 17.1599 20.6321 17.9999 20.6321C18.8399 20.6321 20.3519 19.3921 21.2399 17.6001C21.7269 16.6628 21.9872 15.6243 21.9999 14.5681C21.9999 13.5072 21.5785 12.4898 20.8283 11.7397C20.0782 10.9895 19.0608 10.5681 17.9999 10.5681C16.939 10.5681 15.9216 10.9895 15.1715 11.7397C14.4213 12.4898 13.9999 13.5072 13.9999 14.5681C14.0126 15.6243 14.2729 16.6628 14.7599 17.6001ZM17.9999 12.8001C18.2372 12.8001 18.4692 12.8705 18.6666 13.0024C18.8639 13.1342 19.0177 13.3216 19.1086 13.5409C19.1994 13.7602 19.2231 14.0014 19.1768 14.2342C19.1305 14.467 19.0163 14.6808 18.8484 14.8486C18.6806 15.0165 18.4668 15.1308 18.234 15.1771C18.0012 15.2234 17.76 15.1996 17.5407 15.1088C17.3214 15.0179 17.134 14.8641 17.0021 14.6668C16.8703 14.4695 16.7999 14.2375 16.7999 14.0001C16.7999 13.6819 16.9263 13.3766 17.1514 13.1516C17.3764 12.9265 17.6816 12.8001 17.9999 12.8001ZM24.3999 16.8001H22.4399C22.3519 17.0721 22.2479 17.3441 22.1359 17.6001C21.1439 19.8321 19.2799 21.4321 17.9999 21.4321C16.7199 21.4321 14.8559 19.8321 13.8639 17.6001C13.7519 17.3441 13.6479 17.0721 13.5599 16.8001H11.5999C11.2816 16.8001 10.9764 16.9265 10.7514 17.1516C10.5263 17.3766 10.3999 17.6819 10.3999 18.0001V24.4001C10.3999 24.7184 10.5263 25.0236 10.7514 25.2486C10.9764 25.4737 11.2816 25.6001 11.5999 25.6001H24.3999C24.7182 25.6001 25.0234 25.4737 25.2484 25.2486C25.4735 25.0236 25.5999 24.7184 25.5999 24.4001V18.0001C25.5999 17.6819 25.4735 17.3766 25.2484 17.1516C25.0234 16.9265 24.7182 16.8001 24.3999 16.8001ZM18.3999 22.1521C18.3572 22.2485 18.2802 22.3255 18.1839 22.3681C18.1339 22.38 18.0819 22.38 18.0319 22.3681C17.9794 22.3688 17.9274 22.3584 17.8792 22.3377C17.831 22.3171 17.7876 22.2865 17.7519 22.2481C17.7107 22.2196 17.6759 22.1829 17.6497 22.1402C17.6236 22.0974 17.6066 22.0498 17.5999 22.0001C17.5993 21.9477 17.6096 21.8956 17.6303 21.8474C17.6509 21.7992 17.6815 21.7558 17.7199 21.7201C17.7537 21.6796 17.798 21.6492 17.8479 21.6321C17.9204 21.6018 18.0004 21.5939 18.0774 21.6096C18.1545 21.6253 18.225 21.6638 18.2799 21.7201C18.3183 21.7558 18.3489 21.7992 18.3695 21.8474C18.3902 21.8956 18.4005 21.9477 18.3999 22.0001C18.4118 22.0501 18.4118 22.1021 18.3999 22.1521Z" fill="#B5B5B5"/>
</svg>
