<svg width="36" height="36" viewBox="0 0 36 36" fill="none" xmlns="http://www.w3.org/2000/svg">
<circle cx="18" cy="18" r="18" fill="#F1F1F1"/>
<path d="M16.4339 12.3951C12.7711 12.3951 9.79065 15.3755 9.79065 19.0384C9.79065 20.2889 10.1398 21.4978 10.7962 22.5553L9.80623 25.6921C9.75935 25.8536 9.81669 26.0255 9.94696 26.1245C10.0199 26.1766 10.098 26.2026 10.1814 26.2026C10.2596 26.2026 10.3377 26.1818 10.4003 26.1349L12.7085 24.5457C13.8132 25.2908 15.0949 25.6816 16.4339 25.6816C20.0968 25.6816 23.0772 22.7011 23.0772 19.0383C23.0772 15.3754 20.0968 12.395 16.4339 12.395L16.4339 12.3951ZM16.4339 22.8161C16.215 22.8161 16.0431 22.639 16.0431 22.4254C16.0431 22.2117 16.215 22.0346 16.4339 22.0346C16.6476 22.0346 16.8247 22.2117 16.8247 22.4254C16.8247 22.639 16.6476 22.8161 16.4339 22.8161ZM18.6849 17.6369C18.6849 18.3872 18.2889 19.0906 17.6428 19.4761L17.0592 19.8253C16.9133 19.9139 16.8247 20.0702 16.8247 20.2421V20.8622C16.8247 21.0758 16.6476 21.253 16.4339 21.253C16.2203 21.253 16.0431 21.0758 16.0431 20.8622V20.2421C16.0431 19.7992 16.2776 19.3824 16.6579 19.1584L17.2416 18.8042C17.6479 18.5592 17.9034 18.1112 17.9034 17.637V17.512C17.9034 16.7044 17.2468 16.0426 16.4339 16.0426C15.6211 16.0426 14.9645 16.7044 14.9645 17.512C14.9645 17.7309 14.7874 17.9028 14.5737 17.9028C14.3548 17.9028 14.1829 17.7309 14.1829 17.512C14.1829 16.272 15.1937 15.261 16.4339 15.261C17.674 15.261 18.6849 16.2718 18.6849 17.512V17.637V17.6369Z" fill="#B5B5B5"/>
<path d="M26.0476 23.5197C25.9747 23.5718 25.8965 23.5978 25.8131 23.5978C25.735 23.5978 25.6568 23.577 25.5943 23.5301L23.286 21.9409C23.2756 21.9462 23.2705 21.9514 23.26 21.9565C23.6455 21.0603 23.8592 20.0755 23.8592 19.0386C23.8592 14.9432 20.5298 11.6135 16.4341 11.6135C15.8714 11.6135 15.3294 11.6761 14.8032 11.7958C16.0328 10.5193 17.7315 9.78979 19.5603 9.78979C23.2231 9.78979 26.2036 12.7702 26.2036 16.4331C26.2036 17.6836 25.8544 18.8925 25.198 19.95L26.188 23.0868C26.2349 23.2483 26.1775 23.4202 26.0473 23.5192L26.0476 23.5197Z" fill="#B5B5B5"/>
</svg>
