<svg width="36" height="36" viewBox="0 0 36 36" fill="none" xmlns="http://www.w3.org/2000/svg">
<circle cx="18" cy="18" r="18" fill="#F1F1F1"/>
<path d="M24.4363 18.0715H11.0078C10.3649 18.0715 9.93633 18.643 10.0078 19.2144L11.3649 24.3572C11.4363 24.7858 11.8649 25.143 12.2935 25.143H12.9363C12.9363 26.143 13.722 27.0001 14.7935 27.0001C15.7935 27.0001 16.6506 26.143 16.6506 25.143H18.8649C18.8649 26.143 19.6506 27.0001 20.722 27.0001C21.722 27.0001 22.5792 26.143 22.5792 25.143H23.222C23.722 25.143 24.0792 24.7858 24.1506 24.3572L25.5078 19.2144C25.5078 18.643 25.0792 18.0715 24.4363 18.0715ZM14.7935 25.9287C14.3649 25.9287 14.0078 25.5715 14.0078 25.143C14.0078 24.7144 14.3649 24.3572 14.7935 24.3572C15.222 24.3572 15.5792 24.7144 15.5792 25.143C15.5792 25.5715 15.222 25.9287 14.7935 25.9287ZM20.6506 25.9287C20.222 25.9287 19.8649 25.5715 19.8649 25.143C19.8649 24.7144 20.222 24.3572 20.6506 24.3572C21.0792 24.3572 21.4363 24.7144 21.4363 25.143C21.4363 25.5715 21.0792 25.9287 20.6506 25.9287Z" fill="#B5B5B5"/>
<path d="M12.5791 17.4286H16.5077C17.0791 17.4286 17.5077 16.7857 17.3649 16.0714L16.9363 14.2857C16.8649 13.8571 16.5077 13.5 16.0791 13.5H12.9363C12.5077 13.5 12.222 13.7857 12.0791 14.2857L11.6506 16.0714C11.5077 16.7857 11.9363 17.4286 12.5791 17.4286Z" fill="#B5B5B5"/>
<path d="M18.5075 14.3572L18.079 16.143C17.9361 16.7858 18.3647 17.5001 18.9361 17.5001H22.8647C23.4361 17.5001 23.8647 16.8572 23.7218 16.143L23.2932 14.3572C23.2218 13.9287 22.8647 13.5715 22.4361 13.5715H19.3647C19.0075 13.5715 18.6504 13.8572 18.5075 14.3572Z" fill="#B5B5B5"/>
<path d="M15.7937 12.9286H19.7223C20.2937 12.9286 20.7223 12.2857 20.5794 11.5714L20.1508 9.78571C20.0794 9.35714 19.7223 9 19.2937 9H16.2223C15.7937 9 15.508 9.28571 15.3651 9.78571L14.9365 11.5714C14.7937 12.2143 15.1508 12.9286 15.7937 12.9286Z" fill="#B5B5B5"/>
</svg>
