<svg width="36" height="36" viewBox="0 0 36 36" fill="none" xmlns="http://www.w3.org/2000/svg">
<circle cx="18" cy="18" r="18" fill="#F1F1F1"/>
<path d="M15.5118 25.6191V22.9637C15.5118 22.2858 16.0653 21.7363 16.7481 21.7363H19.2441C19.572 21.7363 19.8865 21.8657 20.1183 22.0958C20.3502 22.326 20.4804 22.6382 20.4804 22.9637V25.6191C20.4784 25.9009 20.5897 26.1719 20.7897 26.3719C20.9897 26.5719 21.2618 26.6843 21.5457 26.6843H23.2486C24.0439 26.6864 24.8073 26.3742 25.3704 25.8166C25.9335 25.2591 26.25 24.502 26.25 23.7124V16.1477C26.25 15.5099 25.9652 14.9049 25.4724 14.4958L19.6795 9.90286C18.6719 9.09756 17.2281 9.12356 16.2505 9.96461L10.5898 14.4958C10.0737 14.8929 9.76524 15.4996 9.75 16.1477V23.7047C9.75 25.3503 11.0938 26.6843 12.7514 26.6843H14.4154C15.005 26.6843 15.4842 26.2121 15.4885 25.6268L15.5118 25.6191Z" fill="#B5B5B5"/>
</svg>
