<svg width="36" height="36" viewBox="0 0 36 36" fill="none" xmlns="http://www.w3.org/2000/svg">
<circle cx="18" cy="18" r="18" fill="#F1F1F1"/>
<path fill-rule="evenodd" clip-rule="evenodd" d="M18.754 17.3584C19.1186 17.3584 19.4069 17.6417 19.4069 18.0001C19.4069 18.3501 19.1186 18.6417 18.754 18.6417H13.6668V22.6251C13.6668 24.6667 15.3541 26.3334 17.4398 26.3334H21.569C23.6462 26.3334 25.3335 24.6751 25.3335 22.6334V13.3751C25.3335 11.3251 23.6378 9.66675 21.5605 9.66675H17.4229C15.3541 9.66675 13.6668 11.3251 13.6668 13.3667V17.3584H18.754ZM10.6417 15.1169L8.20833 17.5419C8.08333 17.6669 8.01666 17.8252 8.01666 18.0002C8.01666 18.1669 8.08333 18.3336 8.20833 18.4502L10.6417 20.8752C10.7667 21.0002 10.9333 21.0669 11.0917 21.0669C11.2583 21.0669 11.425 21.0002 11.55 20.8752C11.8 20.6252 11.8 20.2169 11.55 19.9669L10.2167 18.6419H13.6667V17.3586H10.2167L11.55 16.0336C11.8 15.7836 11.8 15.3752 11.55 15.1252C11.3 14.8669 10.8917 14.8669 10.6417 15.1169Z" fill="#B5B5B5"/>
</svg>
