<svg width="36" height="36" viewBox="0 0 36 36" fill="none" xmlns="http://www.w3.org/2000/svg">
<circle cx="18" cy="18" r="18" fill="#F1F1F1"/>
<path d="M26.399 10H9.6C9.268 10 9 10.267 9 10.6V13H27V10.6C27 10.5211 26.9844 10.443 26.9542 10.3702C26.924 10.2973 26.8797 10.2311 26.8239 10.1754C26.7681 10.1197 26.7018 10.0755 26.6289 10.0454C26.556 10.0153 26.4779 9.99987 26.399 10ZM10 24.6C10 25.37 10.629 26 11.399 26H24.599C25.369 26 25.999 25.369 25.999 24.6V14H10V24.6ZM15 16H21V18H15V16Z" fill="#B5B5B5"/>
</svg>
