<svg width="36" height="36" viewBox="0 0 36 36" fill="none" xmlns="http://www.w3.org/2000/svg">
<circle cx="18" cy="18" r="18" fill="#F1F1F1"/>
<path d="M23.8982 12.2524C23.1173 12.2524 22.3539 12.484 21.7046 12.9179C21.0552 13.3518 20.5491 13.9684 20.2503 14.6899C19.9514 15.4114 19.8732 16.2053 20.0256 16.9713C20.1779 17.7372 20.554 18.4408 21.1062 18.993C21.6584 19.5452 22.362 19.9213 23.1279 20.0736C23.8939 20.226 24.6878 20.1478 25.4093 19.8489C26.1308 19.5501 26.7474 19.044 27.1813 18.3947C27.6152 17.7453 27.8468 16.9819 27.8468 16.201C27.8468 15.1538 27.4308 14.1494 26.6903 13.4089C25.9498 12.6684 24.9454 12.2524 23.8982 12.2524ZM23.5945 15.8972H24.202C24.4436 15.8972 24.6754 15.9932 24.8463 16.1641C25.0172 16.335 25.1132 16.5668 25.1132 16.8084C25.1132 17.0501 25.0172 17.2819 24.8463 17.4527C24.6754 17.6236 24.4436 17.7196 24.202 17.7196V18.0234C24.202 18.1039 24.17 18.1812 24.113 18.2381C24.056 18.2951 23.9788 18.3271 23.8982 18.3271C23.8177 18.3271 23.7404 18.2951 23.6835 18.2381C23.6265 18.1812 23.5945 18.1039 23.5945 18.0234V17.7196H22.987C22.9065 17.7196 22.8292 17.6876 22.7723 17.6307C22.7153 17.5737 22.6833 17.4965 22.6833 17.4159C22.6833 17.3353 22.7153 17.2581 22.7723 17.2011C22.8292 17.1442 22.9065 17.1122 22.987 17.1122H24.202C24.2825 17.1122 24.3598 17.0802 24.4167 17.0232C24.4737 16.9662 24.5057 16.889 24.5057 16.8084C24.5057 16.7279 24.4737 16.6506 24.4167 16.5937C24.3598 16.5367 24.2825 16.5047 24.202 16.5047H23.5945C23.3528 16.5047 23.1211 16.4087 22.9502 16.2378C22.7793 16.0669 22.6833 15.8352 22.6833 15.5935C22.6833 15.3518 22.7793 15.1201 22.9502 14.9492C23.1211 14.7783 23.3528 14.6823 23.5945 14.6823V14.3786C23.5945 14.298 23.6265 14.2208 23.6835 14.1638C23.7404 14.1068 23.8177 14.0748 23.8982 14.0748C23.9788 14.0748 24.056 14.1068 24.113 14.1638C24.17 14.2208 24.202 14.298 24.202 14.3786V14.6823H24.8094C24.89 14.6823 24.9672 14.7143 25.0242 14.7713C25.0812 14.8282 25.1132 14.9055 25.1132 14.986C25.1132 15.0666 25.0812 15.1438 25.0242 15.2008C24.9672 15.2578 24.89 15.2898 24.8094 15.2898H23.5945C23.5139 15.2898 23.4367 15.3218 23.3797 15.3787C23.3228 15.4357 23.2908 15.5129 23.2908 15.5935C23.2908 15.6741 23.3228 15.7513 23.3797 15.8083C23.4367 15.8652 23.5139 15.8972 23.5945 15.8972Z" fill="#B5B5B5"/>
<path fill-rule="evenodd" clip-rule="evenodd" d="M12.6636 16.6664C12.9485 16.9513 13.3353 17.112 13.7387 17.112L17.6201 17.112C17.8999 17.112 18.127 16.8849 18.127 16.6051L18.127 12.7238C18.127 12.3203 17.9668 11.9335 17.6814 11.6481C17.1061 11.0728 15.8038 9.77059 14.7753 8.74209C14.2999 8.26662 13.6556 8 12.983 8C12.3108 8 11.6665 8.26662 11.1911 8.74209C10.7298 9.20337 10.2188 9.71434 9.75757 10.1761C9.2821 10.6511 9.01497 11.2958 9.01497 11.968C9.01497 12.6401 9.2821 13.2849 9.75757 13.7604L12.6636 16.6664ZM16.0994 14.5922C16.0994 14.872 15.8723 15.0991 15.5925 15.0991C15.3127 15.0991 15.0856 14.872 15.0856 14.5922C15.0856 14.3124 15.3127 14.0853 15.5925 14.0853C15.8723 14.0853 16.0994 14.3124 16.0994 14.5922Z" fill="#B5B5B5"/>
<path d="M12.6542 26.8576C12.6542 27.4884 12.1429 27.9997 11.5122 27.9997C10.8814 27.9997 10.3701 27.4884 10.3701 26.8576C10.3701 26.2268 10.8814 25.7156 11.5122 25.7156C12.1429 25.7156 12.6542 26.2268 12.6542 26.8576Z" fill="#B5B5B5"/>
<path d="M21.3344 26.8576C21.3344 27.4884 20.8231 27.9997 20.1923 27.9997C19.5616 27.9997 19.0503 27.4884 19.0503 26.8576C19.0503 26.2268 19.5616 25.7156 20.1923 25.7156C20.8231 25.7156 21.3344 26.2268 21.3344 26.8576Z" fill="#B5B5B5"/>
<path d="M11.5125 25.2589C11.9365 25.2589 12.3432 25.4273 12.6431 25.7271C12.9429 26.0271 13.1114 26.4338 13.1114 26.8577H17.6796V19.0918H9V26.8577H9.91364C9.91364 26.4338 10.0821 26.0271 10.3819 25.7271C10.6819 25.4273 11.0885 25.2589 11.5125 25.2589H11.5125Z" fill="#B5B5B5"/>
<path d="M22.2476 26.8579V22.7465L20.4203 20.4624H18.1362V26.8579H18.5931C18.5931 26.2867 18.8977 25.7589 19.3925 25.4732C19.8872 25.1877 20.4966 25.1877 20.9913 25.4732C21.4861 25.7589 21.7907 26.2867 21.7907 26.8579H22.2476ZM19.0499 22.7465V21.376H20.1919L21.334 22.7465H19.0499Z" fill="#B5B5B5"/>
</svg>
