<svg width="16" height="16" viewBox="0 0 16 16" fill="none" xmlns="http://www.w3.org/2000/svg">
<path d="M12.8833 6.31201C12.8833 6.31201 12.5213 10.802 12.3113 12.6933C12.2113 13.5967 11.6533 14.126 10.7393 14.1427C8.99994 14.174 7.25861 14.176 5.51994 14.1393C4.64061 14.1213 4.09194 13.5853 3.99394 12.698C3.78261 10.79 3.42261 6.31201 3.42261 6.31201" stroke="#6A6A6A" stroke-width="1.5" stroke-linecap="round" stroke-linejoin="round"/>
<path d="M13.8055 4.15975H2.50012" stroke="#6A6A6A" stroke-width="1.5" stroke-linecap="round" stroke-linejoin="round"/>
<path d="M11.627 4.15974C11.1037 4.15974 10.653 3.78974 10.5503 3.27707L10.3883 2.46641C10.2883 2.09241 9.94968 1.83374 9.56368 1.83374H6.74168C6.35568 1.83374 6.01701 2.09241 5.91701 2.46641L5.75501 3.27707C5.65234 3.78974 5.20168 4.15974 4.67834 4.15974" stroke="#6A6A6A" stroke-width="1.5" stroke-linecap="round" stroke-linejoin="round"/>
</svg>
