<svg width="17" height="17" viewBox="0 0 17 17" fill="none" xmlns="http://www.w3.org/2000/svg">
<path d="M13.0014 4.85718H10.3214V6.07146H12.4986L15.7857 9.35854V13.713L15.5344 13.9643H15.1786V13.713L13.6085 12.1429H11.8915L10.3214 13.713V13.9643H6.67857V13.713L5.1085 12.1429H3.3915L1.82143 13.713V13.9643H1.46564L1.21429 13.713V10.3215H0V14.2157L0.962929 15.1786H1.82143V15.43L3.3915 17H5.1085L6.67857 15.43V15.1786H10.3214V15.43L11.8915 17H13.6085L15.1786 15.43V15.1786H16.0371L17 14.2157V8.85582L13.0014 4.85718ZM5.46429 14.9273L4.60579 15.7858H3.89421L3.03571 14.9273V14.2157L3.89421 13.3572H4.60579L5.46429 14.2157V14.9273ZM13.9643 14.9273L13.1058 15.7858H12.3942L11.5357 14.9273V14.2157L12.3942 13.3572H13.1058L13.9643 14.2157V14.9273Z" fill="#29AE66"/>
<path d="M8.75136 9.71429L9.71429 8.75136V0.962929L8.75136 0H0.962929L0 0.962929V8.75136L0.962929 9.71429H8.75136ZM4.25 1.21429H5.46429V3.03572H4.25V1.21429ZM1.21429 1.46564L1.46564 1.21429H3.03572V4.25H6.67857V1.21429H8.24865L8.5 1.46564V8.24865L8.24865 8.5H1.46564L1.21429 8.24865V1.46564Z" fill="#29AE66"/>
</svg>
