<svg width="36" height="36" viewBox="0 0 36 36" fill="none" xmlns="http://www.w3.org/2000/svg">
<circle cx="18" cy="18" r="18" fill="#F1F1F1"/>
<path fill-rule="evenodd" clip-rule="evenodd" d="M17.9047 9.6665H22.1042C24.2039 9.6665 25.9163 11.3332 25.9163 13.3665V22.6332C25.9163 24.6748 24.2039 26.3332 22.087 26.3332H17.8961C15.7964 26.3332 14.0754 24.6748 14.0754 22.6415V18.6415H19.4107L18.0338 19.9748C17.7757 20.2248 17.7757 20.6332 18.0338 20.8832C18.1629 21.0082 18.335 21.0665 18.5071 21.0665C18.6706 21.0665 18.8427 21.0082 18.9718 20.8832L21.4846 18.4582C21.6137 18.3415 21.6825 18.1748 21.6825 17.9998C21.6825 17.8332 21.6137 17.6665 21.4846 17.5498L18.9718 15.1248C18.7137 14.8748 18.292 14.8748 18.0338 15.1248C17.7757 15.3748 17.7757 15.7832 18.0338 16.0332L19.4107 17.3582H14.0754V13.3748C14.0754 11.3332 15.7964 9.6665 17.9047 9.6665ZM10.083 17.9998C10.083 17.6498 10.379 17.3581 10.7343 17.3581H14.0751V18.6414H10.7343C10.379 18.6414 10.083 18.3581 10.083 17.9998Z" fill="#B5B5B5" fill-opacity="0.733333"/>
</svg>
