<svg width="36" height="36" viewBox="0 0 36 36" fill="none" xmlns="http://www.w3.org/2000/svg">
<circle cx="18" cy="18" r="18" fill="#F1F1F1"/>
<path d="M9.81818 10.6364C9.36655 10.6364 9 10.2698 9 9.81818C9 9.36655 9.36655 9 9.81818 9H10.0833C10.4531 9 10.775 9 11.043 9.02005C11.3281 9.04173 11.6112 9.08918 11.891 9.21477C12.314 9.40459 12.674 9.70977 12.9301 10.0955C13.1003 10.3512 13.194 10.6225 13.2619 10.9002C13.3024 11.0635 13.338 11.2492 13.3736 11.4545H23.0347C24.7729 11.4545 26.1818 12.8639 26.1818 14.6021C26.1818 14.9993 26.1515 15.3961 26.091 15.7889C26.091 15.7889 25.8202 17.5496 25.7052 18.045C25.5862 18.5572 25.4332 19.0023 25.1697 19.4081C24.7418 20.0675 24.1331 20.59 23.4164 20.9127C22.9754 21.1107 22.5119 21.1946 21.9878 21.2343C21.4805 21.2727 20.8604 21.2727 20.0954 21.2727H18.3866C17.6138 21.2727 16.9875 21.2727 16.4757 21.2339C15.9464 21.1934 15.4796 21.1083 15.0349 20.9062C14.3243 20.583 13.7205 20.063 13.2955 19.4081C13.03 18.9986 12.8765 18.549 12.7579 18.0319C12.6434 17.5312 12.5505 16.9122 12.4355 16.148L11.8305 12.1406C11.7638 11.7397 11.72 11.484 11.6726 11.2901C11.628 11.106 11.592 11.0373 11.5679 11.0017C11.4824 10.8728 11.3621 10.7714 11.2218 10.708C11.1821 10.6904 11.108 10.6662 10.9195 10.6519C10.7206 10.6368 10.4609 10.6364 10.0546 10.6364H9.81818Z" fill="#B5B5B5"/>
<path d="M14.727 22.0908C13.3717 22.0908 12.2725 23.19 12.2725 24.5454C12.2725 25.9007 13.3717 26.9999 14.727 26.9999C16.0823 26.9999 17.1816 25.9007 17.1816 24.5454C17.1816 23.19 16.0823 22.0908 14.727 22.0908ZM22.9088 22.0908C21.5535 22.0908 20.4543 23.19 20.4543 24.5454C20.4543 25.9007 21.5535 26.9999 22.9088 26.9999C24.2641 26.9999 25.3634 25.9007 25.3634 24.5454C25.3634 23.19 24.2641 22.0908 22.9088 22.0908Z" fill="#B5B5B5"/>
</svg>
