<svg width="27" height="28" viewBox="0 0 27 28" fill="none" xmlns="http://www.w3.org/2000/svg">
<path d="M1.5 2.5C0.81 2.5 0.25 1.94 0.25 1.25C0.25 0.56 0.81 0 1.5 0H1.905C2.47 0 2.96188 -1.32248e-07 3.37125 0.0306249C3.80688 0.0637499 4.23937 0.13625 4.66687 0.328125C5.31312 0.618125 5.86313 1.08438 6.25438 1.67375C6.51438 2.06438 6.6575 2.47875 6.76125 2.90313C6.82312 3.1525 6.8775 3.43625 6.93188 3.75H21.6919C24.3475 3.75 26.5 5.90313 26.5 8.55875C26.5 9.16563 26.4538 9.77188 26.3612 10.3719C26.3612 10.3719 25.9475 13.0619 25.7719 13.8188C25.59 14.6013 25.3563 15.2813 24.9538 15.9013C24.3 16.9088 23.37 17.7069 22.275 18.2C21.6012 18.5025 20.8931 18.6306 20.0925 18.6913C19.3175 18.75 18.37 18.75 17.2013 18.75H14.5906C13.41 18.75 12.4531 18.75 11.6713 18.6906C10.8625 18.6288 10.1494 18.4988 9.47 18.19C8.38438 17.6963 7.46187 16.9019 6.8125 15.9013C6.40688 15.2756 6.1725 14.5888 5.99125 13.7988C5.81625 13.0338 5.67437 12.0881 5.49875 10.9206L4.57438 4.79813C4.4725 4.18563 4.40563 3.795 4.33313 3.49875C4.265 3.2175 4.21 3.1125 4.17313 3.05813C4.0425 2.86125 3.85875 2.70625 3.64437 2.60938C3.58375 2.5825 3.47063 2.54563 3.1825 2.52375C2.87875 2.50063 2.48187 2.5 1.86125 2.5H1.5Z" fill="#DC4326"/>
<path opacity="0.5" d="M9 20C6.92937 20 5.25 21.6794 5.25 23.75C5.25 25.8206 6.92937 27.5 9 27.5C11.0706 27.5 12.75 25.8206 12.75 23.75C12.75 21.6794 11.0706 20 9 20ZM21.5 20C19.4294 20 17.75 21.6794 17.75 23.75C17.75 25.8206 19.4294 27.5 21.5 27.5C23.5706 27.5 25.25 25.8206 25.25 23.75C25.25 21.6794 23.5706 20 21.5 20Z" fill="#00394D"/>
</svg>
