<svg width="27" height="27" viewBox="0 0 27 27" fill="none" xmlns="http://www.w3.org/2000/svg">
<circle cx="13.5" cy="13.5" r="13" fill="white" stroke="#CCCCCC"/>
<path d="M19.2704 18.5218C19.6728 18.5218 20 18.8533 20 19.2609C20 19.6693 19.6728 20 19.2704 20H15.1464C14.7441 20 14.4168 19.6693 14.4168 19.2609C14.4168 18.8533 14.7441 18.5218 15.1464 18.5218H19.2704ZM16.4105 7.50488L17.4757 8.35112C17.9126 8.69272 18.2038 9.14302 18.3034 9.6166C18.4184 10.1375 18.2958 10.6492 17.9509 11.0917L11.6052 19.2979C11.3139 19.6706 10.8848 19.8802 10.4249 19.888L7.89584 19.919C7.75789 19.919 7.64293 19.8259 7.61228 19.6939L7.03748 17.2017C6.93785 16.7437 7.03748 16.2701 7.32871 15.9052L11.8274 10.0824C11.9041 9.98926 12.042 9.97451 12.134 10.0436L14.027 11.5498C14.1496 11.6507 14.3182 11.705 14.4945 11.6817C14.87 11.6352 15.1229 11.2936 15.0846 10.9287C15.0616 10.7423 14.9696 10.5871 14.847 10.4706C14.8087 10.4396 13.0077 8.99551 13.0077 8.99551C12.8927 8.90234 12.8697 8.73154 12.9617 8.61586L13.6744 7.69121C14.3335 6.84497 15.4831 6.76733 16.4105 7.50488Z" fill="black"/>
</svg>
