<svg width="16" height="16" viewBox="0 0 16 16" fill="none" xmlns="http://www.w3.org/2000/svg">
<path d="M10.8125 3.64063V2.84375C10.8125 2.47079 10.6644 2.1131 10.4007 1.84938C10.1369 1.58566 9.77925 1.4375 9.40629 1.4375H8.46879C8.09583 1.4375 7.73814 1.58566 7.47442 1.84938C7.2107 2.1131 7.06254 2.47079 7.06254 2.84375V3.64063C5.8968 4.05064 4.89851 4.83312 4.22191 5.86719C4.18806 5.9189 4.16472 5.97677 4.15323 6.03749C4.14173 6.09822 4.14232 6.16062 4.15494 6.22112C4.18043 6.34331 4.25342 6.45037 4.35785 6.51875C4.46228 6.58713 4.58959 6.61122 4.71179 6.58572C4.83398 6.56023 4.94104 6.48724 5.00941 6.38281C5.49899 5.63008 6.19447 5.03381 7.01313 4.66491C7.83179 4.29601 8.73918 4.17001 9.62738 4.3019C10.5156 4.43378 11.3472 4.818 12.0234 5.40886C12.6995 5.99972 13.1917 6.77235 13.4415 7.63486C13.6912 8.49737 13.6879 9.41346 13.4321 10.2742C13.1762 11.1349 12.6786 11.904 11.9982 12.4901C11.3179 13.0761 10.4836 13.4544 9.59446 13.58C8.70535 13.7056 7.79887 13.5731 6.98285 13.1984C6.86972 13.1468 6.74073 13.1423 6.62425 13.1858C6.50777 13.2293 6.41335 13.3173 6.36176 13.4305C6.31017 13.5436 6.30563 13.6726 6.34914 13.7891C6.39266 13.9056 6.48066 14 6.59379 14.0516C7.28564 14.3769 8.03655 14.5579 8.80067 14.5833C9.56479 14.6087 10.3261 14.4781 11.038 14.1994C11.7499 13.9207 12.3976 13.4999 12.9414 12.9625C13.4853 12.4251 13.9138 11.7825 14.2009 11.0739C14.4881 10.3653 14.6277 9.60568 14.6114 8.84131C14.5951 8.07694 14.4231 7.32393 14.106 6.62826C13.7889 5.93259 13.3333 5.30886 12.767 4.79518C12.2008 4.2815 11.5357 3.88865 10.8125 3.64063ZM8.00004 3.40156V2.84375C8.00004 2.71943 8.04943 2.6002 8.13733 2.51229C8.22524 2.42439 8.34447 2.375 8.46879 2.375H9.40629C9.53061 2.375 9.64984 2.42439 9.73775 2.51229C9.82565 2.6002 9.87504 2.71943 9.87504 2.84375V3.39688C9.56545 3.34261 9.25185 3.31438 8.93754 3.3125C8.62311 3.31615 8.30953 3.34594 8.00004 3.40156Z" fill="black"/>
<path d="M11.6469 6.77195C11.5695 6.67536 11.4571 6.61327 11.3342 6.59922C11.2113 6.58517 11.0878 6.6203 10.9906 6.69695L9.67344 7.74695C9.45401 7.60569 9.19846 7.53081 8.9375 7.53132C8.65937 7.53132 8.38749 7.6138 8.15623 7.76832C7.92497 7.92284 7.74473 8.14246 7.6383 8.39942C7.53186 8.65638 7.50401 8.93913 7.55827 9.21192C7.61253 9.4847 7.74646 9.73527 7.94313 9.93194C8.1398 10.1286 8.39037 10.2625 8.66315 10.3168C8.93594 10.3711 9.21869 10.3432 9.47565 10.2368C9.73261 10.1303 9.95224 9.9501 10.1068 9.71884C10.2613 9.48759 10.3438 9.2157 10.3438 8.93757C10.3431 8.7776 10.3146 8.61897 10.2594 8.46882L11.5719 7.41882C11.6658 7.34173 11.7261 7.23121 11.74 7.11053C11.754 6.98986 11.7206 6.86847 11.6469 6.77195ZM8.9375 9.40632C8.84479 9.40632 8.75416 9.37883 8.67708 9.32732C8.59999 9.27582 8.53991 9.20261 8.50443 9.11695C8.46895 9.0313 8.45967 8.93705 8.47776 8.84612C8.49584 8.75519 8.54049 8.67167 8.60604 8.60612C8.6716 8.54056 8.75512 8.49592 8.84605 8.47783C8.93698 8.45974 9.03123 8.46903 9.11688 8.5045C9.20254 8.53998 9.27575 8.60006 9.32725 8.67715C9.37876 8.75423 9.40625 8.84486 9.40625 8.93757C9.40625 9.06189 9.35687 9.18112 9.26896 9.26903C9.18105 9.35694 9.06182 9.40632 8.9375 9.40632ZM5.65625 7.53132H2.84375C2.71943 7.53132 2.6002 7.58071 2.51229 7.66862C2.42439 7.75652 2.375 7.87575 2.375 8.00007C2.375 8.12439 2.42439 8.24362 2.51229 8.33153C2.6002 8.41944 2.71943 8.46882 2.84375 8.46882H5.65625C5.78057 8.46882 5.8998 8.41944 5.98771 8.33153C6.07561 8.24362 6.125 8.12439 6.125 8.00007C6.125 7.87575 6.07561 7.75652 5.98771 7.66862C5.8998 7.58071 5.78057 7.53132 5.65625 7.53132ZM5.65625 9.40632H1.90625C1.78193 9.40632 1.6627 9.45571 1.57479 9.54362C1.48689 9.63152 1.4375 9.75075 1.4375 9.87507C1.4375 9.99939 1.48689 10.1186 1.57479 10.2065C1.6627 10.2944 1.78193 10.3438 1.90625 10.3438H5.65625C5.78057 10.3438 5.8998 10.2944 5.98771 10.2065C6.07561 10.1186 6.125 9.99939 6.125 9.87507C6.125 9.75075 6.07561 9.63152 5.98771 9.54362C5.8998 9.45571 5.78057 9.40632 5.65625 9.40632ZM5.65625 11.2813H2.84375C2.71943 11.2813 2.6002 11.3307 2.51229 11.4186C2.42439 11.5065 2.375 11.6258 2.375 11.7501C2.375 11.8744 2.42439 11.9936 2.51229 12.0815C2.6002 12.1694 2.71943 12.2188 2.84375 12.2188H5.65625C5.78057 12.2188 5.8998 12.1694 5.98771 12.0815C6.07561 11.9936 6.125 11.8744 6.125 11.7501C6.125 11.6258 6.07561 11.5065 5.98771 11.4186C5.8998 11.3307 5.78057 11.2813 5.65625 11.2813Z" fill="black"/>
</svg>
