<svg width="28" height="28" viewBox="0 0 28 28" fill="none" xmlns="http://www.w3.org/2000/svg">
<path d="M8.75022 16.625L13.5627 11.8125M11.3752 19.25L13.5627 17.0625M3.86247 14.5128L13.4875 4.88775C13.8156 4.55954 14.2606 4.3751 14.7247 4.375H21.8752C22.3394 4.375 22.7845 4.55937 23.1127 4.88756C23.4408 5.21575 23.6252 5.66087 23.6252 6.125V13.2755C23.6251 13.7396 23.4407 14.1846 23.1125 14.5128L13.4875 24.1378C13.1593 24.4658 12.7143 24.6501 12.2502 24.6501C11.7862 24.6501 11.3411 24.4658 11.013 24.1378L3.86247 16.9872C3.5344 16.6591 3.3501 16.214 3.3501 15.75C3.3501 15.286 3.5344 14.8409 3.86247 14.5128Z" stroke="#555555" stroke-width="1.5" stroke-linecap="round" stroke-linejoin="round"/>
<path d="M20.125 8.75C20.125 8.98206 20.0328 9.20462 19.8687 9.36872C19.7046 9.53281 19.4821 9.625 19.25 9.625C19.0179 9.625 18.7954 9.53281 18.6313 9.36872C18.4672 9.20462 18.375 8.98206 18.375 8.75C18.375 8.51794 18.4672 8.29538 18.6313 8.13128C18.7954 7.96719 19.0179 7.875 19.25 7.875C19.4821 7.875 19.7046 7.96719 19.8687 8.13128C20.0328 8.29538 20.125 8.51794 20.125 8.75Z" fill="#555555"/>
</svg>
