<svg width="32" height="32" viewBox="0 0 32 32" fill="none" xmlns="http://www.w3.org/2000/svg">
<rect width="32" height="32" rx="10" fill="white"/>
<g clip-path="url(#clip0_439_555)">
<path d="M13.9531 10.15L15.0406 12H15H12.75C12.0594 12 11.5 11.4406 11.5 10.75C11.5 10.0594 12.0594 9.5 12.75 9.5H12.8187C13.2844 9.5 13.7188 9.74688 13.9531 10.15ZM10 10.75C10 11.2 10.1094 11.625 10.3 12H9C8.44687 12 8 12.4469 8 13V15C8 15.5531 8.44687 16 9 16H23C23.5531 16 24 15.5531 24 15V13C24 12.4469 23.5531 12 23 12H21.7C21.8906 11.625 22 11.2 22 10.75C22 9.23125 20.7688 8 19.25 8H19.1812C18.1844 8 17.2594 8.52813 16.7531 9.3875L16 10.6719L15.2469 9.39062C14.7406 8.52812 13.8156 8 12.8187 8H12.75C11.2313 8 10 9.23125 10 10.75ZM20.5 10.75C20.5 11.4406 19.9406 12 19.25 12H17H16.9594L18.0469 10.15C18.2844 9.74688 18.7156 9.5 19.1812 9.5H19.25C19.9406 9.5 20.5 10.0594 20.5 10.75ZM9 17V22.5C9 23.3281 9.67188 24 10.5 24H15V17H9ZM17 24H21.5C22.3281 24 23 23.3281 23 22.5V17H17V24Z" fill="#9CA3AF"/>
</g>
<defs>
<clipPath id="clip0_439_555">
<path d="M8 8H24V24H8V8Z" fill="white"/>
</clipPath>
</defs>
</svg>
