<svg width="28" height="28" viewBox="0 0 28 28" fill="none" xmlns="http://www.w3.org/2000/svg">
<path d="M14 2.84375C11.7935 2.84375 9.63656 3.49805 7.80192 4.72392C5.96729 5.94978 4.53736 7.69215 3.69297 9.73069C2.84858 11.7692 2.62765 14.0124 3.05812 16.1765C3.48859 18.3406 4.55112 20.3284 6.11134 21.8887C7.67157 23.4489 9.65943 24.5114 11.8235 24.9419C13.9876 25.3724 16.2308 25.1514 18.2693 24.307C20.3079 23.4626 22.0502 22.0327 23.2761 20.1981C24.502 18.3634 25.1563 16.2065 25.1563 14C25.1505 11.043 23.9732 8.20868 21.8823 6.11773C19.7913 4.02677 16.9571 2.84953 14 2.84375ZM14 23.8438C12.0531 23.8438 10.1499 23.2664 8.53111 22.1848C6.91231 21.1031 5.65062 19.5658 4.90557 17.767C4.16052 15.9683 3.96558 13.9891 4.3454 12.0796C4.72522 10.1701 5.66275 8.41609 7.03942 7.03942C8.4161 5.66274 10.1701 4.72522 12.0796 4.34539C13.9891 3.96557 15.9683 4.16051 17.767 4.90556C19.5658 5.65061 21.1031 6.91231 22.1848 8.53111C23.2664 10.1499 23.8438 12.0531 23.8438 14C23.8409 16.6098 22.8028 19.112 20.9574 20.9574C19.112 22.8028 16.6098 23.8409 14 23.8438ZM18.1563 16.1875C18.1534 16.9408 17.8528 17.6625 17.3202 18.1952C16.7875 18.7278 16.0658 19.0284 15.3125 19.0312H14.6563V20.125C14.6563 20.299 14.5871 20.466 14.464 20.589C14.341 20.7121 14.1741 20.7812 14 20.7812C13.826 20.7812 13.659 20.7121 13.536 20.589C13.4129 20.466 13.3438 20.299 13.3438 20.125V19.0312H11.375C11.201 19.0312 11.034 18.9621 10.911 18.839C10.7879 18.716 10.7188 18.549 10.7188 18.375C10.7188 18.201 10.7879 18.034 10.911 17.911C11.034 17.7879 11.201 17.7188 11.375 17.7188H15.3125C15.7186 17.7188 16.1081 17.5574 16.3953 17.2703C16.6824 16.9831 16.8438 16.5936 16.8438 16.1875C16.8438 15.7814 16.6824 15.3919 16.3953 15.1047C16.1081 14.8176 15.7186 14.6562 15.3125 14.6562H12.6875C11.9333 14.6562 11.21 14.3566 10.6767 13.8233C10.1434 13.29 9.84376 12.5667 9.84375 11.8125C9.84375 11.0583 10.1434 10.335 10.6767 9.80167C11.21 9.26836 11.9333 8.96875 12.6875 8.96875H13.3438V7.875C13.3438 7.70095 13.4129 7.53403 13.536 7.41096C13.659 7.28789 13.826 7.21875 14 7.21875C14.1741 7.21875 14.341 7.28789 14.464 7.41096C14.5871 7.53403 14.6563 7.70095 14.6563 7.875V8.96875H16.625C16.7991 8.96875 16.966 9.03789 17.089 9.16096C17.2121 9.28403 17.2813 9.45095 17.2813 9.625C17.2813 9.79905 17.2121 9.96597 17.089 10.089C16.966 10.2121 16.7991 10.2812 16.625 10.2812H12.6875C12.2814 10.2812 11.8919 10.4426 11.6047 10.7297C11.3176 11.0169 11.1563 11.4064 11.1563 11.8125C11.1563 12.2186 11.3176 12.6081 11.6047 12.8953C11.8919 13.1824 12.2814 13.3438 12.6875 13.3438H15.3125C16.0658 13.3466 16.7875 13.6472 17.3202 14.1798C17.8528 14.7125 18.1534 15.4342 18.1563 16.1875Z" fill="#555555" stroke="#555555" stroke-width="0.3"/>
</svg>
