<svg width="28" height="28" viewBox="0 0 28 28" fill="none" xmlns="http://www.w3.org/2000/svg">
<path d="M20.8691 12.7128C22.4966 12.4841 23.7496 11.0888 23.7531 9.39832C23.7531 7.73232 22.5386 6.35098 20.9461 6.08965" stroke="#555555" stroke-width="1.5" stroke-linecap="round" stroke-linejoin="round"/>
<path d="M23.0166 16.6254C24.5928 16.861 25.6929 17.4129 25.6929 18.5504C25.6929 19.3332 25.1749 19.8419 24.3373 20.1615" stroke="#555555" stroke-width="1.5" stroke-linecap="round" stroke-linejoin="round"/>
<path fill-rule="evenodd" clip-rule="evenodd" d="M13.8677 17.1078C10.118 17.1078 6.91553 17.6759 6.91553 19.9451C6.91553 22.2131 10.0982 22.7976 13.8677 22.7976C17.6174 22.7976 20.8187 22.2353 20.8187 19.9649C20.8187 17.6946 17.6372 17.1078 13.8677 17.1078Z" stroke="#555555" stroke-width="1.5" stroke-linecap="round" stroke-linejoin="round"/>
<path fill-rule="evenodd" clip-rule="evenodd" d="M13.8676 13.8692C16.3281 13.8692 18.3231 11.8754 18.3231 9.41372C18.3231 6.95322 16.3281 4.95822 13.8676 4.95822C11.4071 4.95822 9.41214 6.95322 9.41214 9.41372C9.40281 11.8661 11.3826 13.8611 13.835 13.8692H13.8676Z" stroke="#555555" stroke-width="1.5" stroke-linecap="round" stroke-linejoin="round"/>
<path d="M6.86545 12.7128C5.23678 12.4841 3.98495 11.0888 3.98145 9.39832C3.98145 7.73232 5.19595 6.35098 6.78845 6.08965" stroke="#555555" stroke-width="1.5" stroke-linecap="round" stroke-linejoin="round"/>
<path d="M4.71784 16.6254C3.14167 16.861 2.0415 17.4129 2.0415 18.5504C2.0415 19.3332 2.5595 19.8419 3.39717 20.1615" stroke="#555555" stroke-width="1.5" stroke-linecap="round" stroke-linejoin="round"/>
</svg>
