<svg width="28" height="28" viewBox="0 0 28 28" fill="none" xmlns="http://www.w3.org/2000/svg">
<path d="M19.7533 6.03503C19.4803 6.40318 19.5547 6.92025 19.9229 7.19326C20.1256 7.34217 20.32 7.5035 20.5103 7.66896C20.8536 7.97092 21.3748 7.93783 21.6768 7.59864C21.8092 7.44559 21.8836 7.25117 21.8836 7.05261C21.8836 6.89956 21.8422 6.74651 21.7554 6.61001C21.714 6.54382 21.6644 6.48591 21.6023 6.43214C21.379 6.23358 21.1473 6.04744 20.9074 5.86543C20.8412 5.81579 20.7668 5.77443 20.6882 5.74961C20.3572 5.62965 19.9725 5.7372 19.7533 6.03503ZM16.5889 4.00399C16.2455 4.04122 15.9518 4.29355 15.8732 4.64929C15.774 5.09604 16.0594 5.53451 16.5061 5.63379C16.7543 5.68756 16.9984 5.74961 17.2383 5.8282C17.6768 5.96471 18.1401 5.71652 18.2724 5.28218C18.2972 5.19945 18.3097 5.11672 18.3097 5.03813C18.3097 4.77339 18.1814 4.52106 17.9622 4.36387C17.8919 4.31423 17.8133 4.27287 17.7264 4.24805C17.441 4.16118 17.1514 4.08259 16.8577 4.02054C16.7667 3.99986 16.6757 3.99572 16.5889 4.00399ZM22.7233 8.89337C22.3221 9.11674 22.1814 9.6214 22.4048 10.0185C22.5289 10.2377 22.6406 10.4653 22.744 10.6928C22.9302 11.1105 23.4224 11.2926 23.8402 11.1064C24.1463 10.9699 24.3283 10.6679 24.3283 10.3536C24.3283 10.2957 24.32 10.2336 24.3076 10.1757C24.2952 10.1219 24.2787 10.0681 24.2538 10.0144C24.1297 9.74136 23.9974 9.47248 23.8485 9.21188C23.8154 9.15397 23.7781 9.1002 23.7326 9.05469C23.4803 8.77755 23.0625 8.69895 22.7233 8.89337Z" fill="#555555" stroke="#555555" stroke-width="0.2"/>
<path d="M10.2834 4.7306C10.635 4.57341 11.0486 4.68509 11.2637 5.00774L11.2679 5.01188C11.2844 5.0367 11.301 5.06152 11.3175 5.08634C11.3217 5.09461 11.3258 5.10288 11.3299 5.10702C11.574 5.5124 11.4003 6.04188 10.9659 6.23216C7.83456 7.6303 5.65461 10.7617 5.65461 14.4059C5.65461 19.3574 9.63809 23.3408 14.5895 23.345C19.5285 23.345 23.5327 19.3449 23.5327 14.4059C23.5327 14.1536 23.5203 13.9013 23.4996 13.6531C23.4996 13.6365 23.4955 13.6241 23.4955 13.6076C23.4582 13.1526 23.7974 12.7513 24.2525 12.7141C24.6785 12.6769 25.0591 12.9747 25.1335 13.3842C25.1377 13.4132 25.1418 13.438 25.1459 13.4669C25.1708 13.7648 25.1832 14.0626 25.1832 14.3604V14.3646C25.1832 14.3687 25.1832 14.3728 25.1832 14.3811C25.1832 14.3894 25.1832 14.3935 25.1832 14.4018C25.1832 14.4887 25.1832 14.5797 25.179 14.6665C25.179 14.712 25.1749 14.7534 25.1749 14.7989C25.1708 14.9023 25.1666 15.0057 25.1583 15.1091C25.1542 15.1464 25.1542 15.1836 25.1501 15.2167C25.1459 15.2622 25.1418 15.3036 25.1377 15.3491C25.1377 15.3532 25.1377 15.3573 25.1377 15.3615C25.1335 15.4028 25.1294 15.4442 25.1253 15.4856C25.1129 15.6179 25.0963 15.7503 25.0756 15.8827C24.815 17.7565 24.0622 19.5104 22.8791 20.9913C22.8378 21.0409 22.8005 21.0906 22.7592 21.1402C22.6806 21.2395 22.5978 21.3346 22.511 21.4298C22.482 21.4628 22.4531 21.4918 22.4282 21.5249C22.3993 21.558 22.3703 21.5869 22.3414 21.62C22.1676 21.8062 21.9898 21.9841 21.8036 22.1578C21.7705 22.1867 21.7416 22.2157 21.7085 22.2447C21.6754 22.2736 21.6464 22.3026 21.6133 22.3274C21.5182 22.4101 21.4231 22.4928 21.3238 22.5756C21.2741 22.6169 21.2245 22.6583 21.1749 22.6955C19.694 23.8786 17.9401 24.6314 16.0663 24.892C15.9339 24.9127 15.8015 24.9251 15.6692 24.9417C15.6278 24.9458 15.5864 24.9499 15.5451 24.9541C15.5409 24.9541 15.5368 24.9541 15.5326 24.9541C15.4871 24.9582 15.4458 24.9623 15.4003 24.9665C15.363 24.9706 15.3258 24.9706 15.2927 24.9748C15.1893 24.983 15.0859 24.9872 14.9825 24.9913C14.937 24.9913 14.8956 24.9954 14.8501 24.9954C14.7633 24.9954 14.6722 24.9996 14.5854 24.9996C14.4985 24.9996 14.4075 24.9996 14.3206 24.9954C14.2751 24.9954 14.2338 24.9913 14.1883 24.9913C14.0849 24.9872 13.9814 24.983 13.878 24.9748C13.8408 24.9706 13.8036 24.9706 13.7705 24.9665C13.725 24.9623 13.6836 24.9582 13.6381 24.9541C13.634 24.9541 13.6298 24.9541 13.6257 24.9541C13.5843 24.9499 13.543 24.9458 13.5016 24.9417C13.3692 24.9293 13.2369 24.9127 13.1045 24.892C11.2307 24.6314 9.47677 23.8786 7.99589 22.6955C7.94625 22.6542 7.89661 22.6169 7.84697 22.5756C7.7477 22.497 7.65256 22.4142 7.55742 22.3274C7.52432 22.2984 7.49537 22.2695 7.46228 22.2447C7.42918 22.2157 7.40023 22.1867 7.36714 22.1578C7.18099 21.9841 7.00312 21.8062 6.82939 21.62C6.80043 21.5869 6.77147 21.558 6.74252 21.5249C6.71356 21.4918 6.68461 21.4628 6.65979 21.4298C6.57706 21.3346 6.49433 21.2395 6.4116 21.1402C6.37023 21.0906 6.32887 21.0409 6.29164 20.9913C5.121 19.5145 4.36815 17.7607 4.10755 15.8868C4.08687 15.7544 4.07446 15.6221 4.05791 15.4897C4.05377 15.4483 4.04964 15.407 4.0455 15.3656C4.0455 15.3615 4.0455 15.3573 4.0455 15.3532C4.04137 15.3077 4.03723 15.2663 4.03309 15.2208C4.02896 15.1836 4.02896 15.1464 4.02482 15.1133C4.01655 15.0099 4.01241 14.9065 4.00827 14.803C4.00827 14.7575 4.00414 14.7162 4.00414 14.6707C4.00414 14.5838 4 14.4928 4 14.4059C4 14.3356 4 14.2694 4 14.2032C4 14.166 4 14.1246 4.00414 14.0874C4.00414 14.075 4.00414 14.0585 4.00414 14.0419C4.00414 13.9923 4.00827 13.9426 4.00827 13.8971C4.01241 13.7855 4.02068 13.6696 4.02896 13.5579C4.03723 13.4711 4.0455 13.3842 4.05377 13.2973C4.32679 10.7203 5.53465 8.35419 7.40436 6.62513L7.4085 6.62099C7.50364 6.53412 7.59878 6.45139 7.69392 6.36866C7.81388 6.26525 7.93798 6.16183 8.06621 6.06256C8.10757 6.02947 8.14894 5.99637 8.19444 5.96328C8.20685 5.95501 8.21512 5.94674 8.22753 5.93846C8.2689 5.90951 8.31026 5.87641 8.34749 5.84746C8.39713 5.81023 8.44677 5.773 8.49641 5.73991C8.53777 5.71095 8.57914 5.682 8.6205 5.65304C8.66601 5.61995 8.71151 5.59099 8.76115 5.5579C8.80251 5.53308 8.83974 5.50413 8.88111 5.47931C8.88938 5.47517 8.89352 5.47103 8.90179 5.4669C9.3444 5.19389 9.80355 4.9457 10.2834 4.7306Z" fill="#555555" stroke="#555555" stroke-width="0.1"/>
<path d="M13.7907 14.5177L17.679 9.57455C17.9603 9.21468 18.4815 9.15263 18.8414 9.43391C19.2012 9.7152 19.2633 10.2364 18.982 10.5963L15.0895 15.5394C14.8083 15.8993 14.2871 15.9614 13.9272 15.6801C13.5714 15.3988 13.5094 14.8776 13.7907 14.5177Z" fill="#555555" stroke="#555555" stroke-width="0.2"/>
</svg>
