<svg width="20" height="20" viewBox="0 0 20 20" fill="none" xmlns="http://www.w3.org/2000/svg">
<path d="M14.3402 0H5.67024C2.28024 0 0.000244141 2.38 0.000244141 5.92V14.09C0.000244141 17.62 2.28024 20 5.67024 20H14.3402C17.7302 20 20.0002 17.62 20.0002 14.09V5.92C20.0002 2.38 17.7302 0 14.3402 0Z" fill="#A3A3A3"/>
<path d="M8.81332 13.248C8.58932 13.248 8.36532 13.163 8.19432 12.992L5.82132 10.619C5.47932 10.277 5.47932 9.72297 5.82132 9.38196C6.16332 9.03996 6.71632 9.03896 7.05832 9.38096L8.81332 11.136L12.9413 7.00796C13.2833 6.66596 13.8363 6.66596 14.1783 7.00796C14.5203 7.34996 14.5203 7.90396 14.1783 8.24596L9.43232 12.992C9.26132 13.163 9.03732 13.248 8.81332 13.248Z" fill="white"/>
</svg>
