<svg width="21" height="22" viewBox="0 0 21 22" fill="none" xmlns="http://www.w3.org/2000/svg">
<path d="M8.49844 0.518834C9.31406 0.654771 9.86719 1.42821 9.73125 2.24383L9.27188 5.00008H13.7297L14.2687 1.75165C14.4047 0.936021 15.1781 0.382896 15.9938 0.518834C16.8094 0.654771 17.3625 1.42821 17.2266 2.24383L16.7719 5.00008H19.5C20.3297 5.00008 21 5.6704 21 6.50008C21 7.32977 20.3297 8.00008 19.5 8.00008H16.2703L15.2719 14.0001H18C18.8297 14.0001 19.5 14.6704 19.5 15.5001C19.5 16.3298 18.8297 17.0001 18 17.0001H14.7703L14.2313 20.2485C14.0953 21.0641 13.3219 21.6173 12.5062 21.4813C11.6906 21.3454 11.1375 20.572 11.2734 19.7563L11.7328 17.0048H7.27031L6.73125 20.2532C6.59531 21.0688 5.82188 21.622 5.00625 21.486C4.19063 21.3501 3.6375 20.5766 3.77344 19.761L4.22812 17.0001H1.5C0.670312 17.0001 0 16.3298 0 15.5001C0 14.6704 0.670312 14.0001 1.5 14.0001H4.72969L5.72812 8.00008H3C2.17031 8.00008 1.5 7.32977 1.5 6.50008C1.5 5.6704 2.17031 5.00008 3 5.00008H6.22969L6.76875 1.75165C6.90469 0.936021 7.67812 0.382896 8.49375 0.518834H8.49844ZM8.77031 8.00008L7.77188 14.0001H12.2297L13.2281 8.00008H8.77031Z" fill="#969696"/>
</svg>
