<svg width="20" height="20" viewBox="0 0 20 20" fill="none" xmlns="http://www.w3.org/2000/svg">
<path fill-rule="evenodd" clip-rule="evenodd" d="M10.0001 18.3332C5.40008 18.3332 1.66675 14.5915 1.66675 9.99984C1.66675 5.39984 5.40008 1.6665 10.0001 1.6665C14.5917 1.6665 18.3334 5.39984 18.3334 9.99984C18.3334 14.5915 14.5917 18.3332 10.0001 18.3332ZM13.3334 8.34984C13.0834 8.10817 12.6917 8.10817 12.4501 8.35817L10.0001 10.8165L7.55008 8.35817C7.30841 8.10817 6.90841 8.10817 6.66675 8.34984C6.41675 8.59984 6.41675 8.9915 6.66675 9.23317L9.55841 12.1415C9.67508 12.2582 9.83341 12.3248 10.0001 12.3248C10.1667 12.3248 10.3251 12.2582 10.4417 12.1415L13.3334 9.23317C13.4584 9.1165 13.5167 8.95817 13.5167 8.79984C13.5167 8.63317 13.4584 8.47484 13.3334 8.34984Z" fill="#00394D"/>
</svg>
