<svg width="46" height="46" viewBox="0 0 46 46" fill="none" xmlns="http://www.w3.org/2000/svg">
<circle cx="23" cy="23" r="23" fill="#DDE3E5" fill-opacity="0.35"/>
<path d="M16 25.5961H16.75H16ZM18.4596 28.4746L18.3566 29.2174H18.3566L18.4596 28.4746ZM27.6272 28.4746L27.5242 27.7317L27.6272 28.4746ZM29.7539 24.224L29.0879 24.569L29.7539 24.224ZM18.3152 19.4782C18.3152 16.8669 20.4321 14.75 23.0434 14.75V13.25C19.6037 13.25 16.8152 16.0385 16.8152 19.4782H18.3152ZM18.3152 21.1825V19.4782H16.8152V21.1825H18.3152ZM16.75 25.5961C16.75 25.2243 16.8401 24.8757 16.999 24.569L15.667 23.8791C15.4003 24.3941 15.25 24.9786 15.25 25.5961H16.75ZM18.5626 27.7317C17.5218 27.5873 16.75 26.6819 16.75 25.5961H15.25C15.25 27.3955 16.5396 28.9655 18.3566 29.2174L18.5626 27.7317ZM23.0434 28.1192C21.7061 28.1192 19.9755 27.9276 18.5626 27.7317L18.3566 29.2174C19.7817 29.4151 21.5974 29.6192 23.0434 29.6192V28.1192ZM27.5242 27.7317C26.1113 27.9276 24.3808 28.1192 23.0434 28.1192V29.6192C24.4895 29.6192 26.3052 29.4151 27.7303 29.2174L27.5242 27.7317ZM29.3368 25.5961C29.3368 26.6819 28.5651 27.5873 27.5242 27.7317L27.7303 29.2174C29.5473 28.9655 30.8368 27.3955 30.8368 25.5961H29.3368ZM29.0879 24.569C29.2468 24.8757 29.3368 25.2243 29.3368 25.5961H30.8368C30.8368 24.9786 30.6865 24.3941 30.4199 23.8791L29.0879 24.569ZM27.7716 19.4782V21.1825H29.2716V19.4782H27.7716ZM23.0434 14.75C25.6548 14.75 27.7716 16.8669 27.7716 19.4782H29.2716C29.2716 16.0385 26.4832 13.25 23.0434 13.25V14.75ZM30.4199 23.8791C30.2849 23.6186 30.1355 23.3593 29.9999 23.1207C29.8607 22.8759 29.7329 22.6474 29.6218 22.4201C29.3985 21.9634 29.2716 21.5676 29.2716 21.1825H27.7716C27.7716 21.8978 28.0079 22.5341 28.2742 23.0789C28.4079 23.3523 28.5565 23.6168 28.6958 23.8619C28.8387 24.1133 28.9698 24.341 29.0879 24.569L30.4199 23.8791ZM16.8152 21.1825C16.8152 21.5675 16.6883 21.9634 16.4651 22.4201C16.3539 22.6474 16.2261 22.8759 16.087 23.1207C15.9513 23.3593 15.8019 23.6186 15.667 23.8791L16.999 24.569C17.117 24.341 17.2482 24.1133 17.391 23.8619C17.5303 23.6168 17.679 23.3523 17.8126 23.0789C18.079 22.5341 18.3152 21.8978 18.3152 21.1825H16.8152Z" fill="#DC4326"/>
<path d="M25 30.9504C24.5794 31.5831 23.8601 32 23.0435 32C22.2269 32 21.5076 31.5831 21.087 30.9504" stroke="#DC4326" stroke-width="1.5" stroke-linecap="round"/>
</svg>
