<svg width="26" height="26" viewBox="0 0 26 26" fill="none" xmlns="http://www.w3.org/2000/svg">
<g id="Iconly/Light-Outline/Notification">
<g id="Notification">
<g id="Group 3">
<mask id="mask0_36_200" style="mask-type:luminance" maskUnits="userSpaceOnUse" x="3" y="1" width="21" height="19">
<path id="Clip 2" fill-rule="evenodd" clip-rule="evenodd" d="M3.25012 1.08301H23.2884V19.8767H3.25012V1.08301Z" fill="white"/>
</mask>
<g mask="url(#mask0_36_200)">
<path id="Fill 1" fill-rule="evenodd" clip-rule="evenodd" d="M13.2677 2.70801C9.48147 2.70801 6.84247 5.67417 6.84247 8.33593C6.84247 10.5882 6.21739 11.6293 5.66489 12.5479C5.2218 13.2857 4.87189 13.8685 4.87189 15.1349C5.0528 17.1781 6.40155 18.2517 13.2677 18.2517C20.096 18.2517 21.487 17.1304 21.6668 15.0645C21.6636 13.8685 21.3136 13.2857 20.8706 12.5479C20.3181 11.6293 19.693 10.5882 19.693 8.33593C19.693 5.67417 17.054 2.70801 13.2677 2.70801ZM13.2677 19.8767C8.20205 19.8767 3.62389 19.5192 3.25014 15.2043C3.24689 13.4189 3.7918 12.5111 4.2728 11.7116C4.75922 10.9013 5.21747 10.1375 5.21747 8.33593C5.21747 4.83351 8.4523 1.08301 13.2677 1.08301C18.0831 1.08301 21.318 4.83351 21.318 8.33593C21.318 10.1375 21.7762 10.9013 22.2626 11.7116C22.7436 12.5111 23.2886 13.4189 23.2886 15.1349C22.9105 19.5192 18.3334 19.8767 13.2677 19.8767Z" fill="white"/>
</g>
</g>
<path id="Fill 4" fill-rule="evenodd" clip-rule="evenodd" d="M13.2149 24.3752H13.2127C11.9983 24.3741 10.8489 23.8389 9.97677 22.8672C9.67669 22.5346 9.70377 22.02 10.0374 21.721C10.3711 21.4198 10.8846 21.4469 11.1847 21.7817C11.7459 22.4067 12.4663 22.7502 13.2138 22.7502H13.2149C13.9656 22.7502 14.6893 22.4067 15.2515 21.7806C15.5527 21.448 16.0662 21.4209 16.3988 21.721C16.7324 22.0211 16.7595 22.5357 16.4594 22.8682C15.5841 23.84 14.4325 24.3752 13.2149 24.3752Z" fill="white"/>
</g>
</g>
</svg>
