<svg width="16" height="13" viewBox="0 0 16 13" fill="none" xmlns="http://www.w3.org/2000/svg">
<g clip-path="url(#clip0_475_655)">
<path d="M2.09375 0.75C1.47266 0.75 0.96875 1.25391 0.96875 1.875V9.375C0.96875 9.99609 1.47266 10.5 2.09375 10.5H2.46875C2.46875 11.7422 3.47656 12.75 4.71875 12.75C5.96094 12.75 6.96875 11.7422 6.96875 10.5H9.96875C9.96875 11.7422 10.9766 12.75 12.2188 12.75C13.4609 12.75 14.4688 11.7422 14.4688 10.5H15.2188C15.6336 10.5 15.9688 10.1648 15.9688 9.75C15.9688 9.33516 15.6336 9 15.2188 9V7.5V6.75V6.31172C15.2188 5.91328 15.0617 5.53125 14.7805 5.25L12.9688 3.43828C12.6875 3.15703 12.3055 3 11.907 3H10.7188V1.875C10.7188 1.25391 10.2148 0.75 9.59375 0.75H2.09375ZM10.7188 4.5H11.907L13.7188 6.31172V6.75H10.7188V4.5ZM3.59375 10.5C3.59375 10.2016 3.71228 9.91548 3.92325 9.7045C4.13423 9.49353 4.42038 9.375 4.71875 9.375C5.01712 9.375 5.30327 9.49353 5.51425 9.7045C5.72522 9.91548 5.84375 10.2016 5.84375 10.5C5.84375 10.7984 5.72522 11.0845 5.51425 11.2955C5.30327 11.5065 5.01712 11.625 4.71875 11.625C4.42038 11.625 4.13423 11.5065 3.92325 11.2955C3.71228 11.0845 3.59375 10.7984 3.59375 10.5ZM12.2188 9.375C12.5171 9.375 12.8033 9.49353 13.0142 9.7045C13.2252 9.91548 13.3438 10.2016 13.3438 10.5C13.3438 10.7984 13.2252 11.0845 13.0142 11.2955C12.8033 11.5065 12.5171 11.625 12.2188 11.625C11.9204 11.625 11.6342 11.5065 11.4233 11.2955C11.2123 11.0845 11.0938 10.7984 11.0938 10.5C11.0938 10.2016 11.2123 9.91548 11.4233 9.7045C11.6342 9.49353 11.9204 9.375 12.2188 9.375Z" fill="white"/>
</g>
<defs>
<clipPath id="clip0_475_655">
<path d="M0.96875 0.75H15.9688V12.75H0.96875V0.75Z" fill="white"/>
</clipPath>
</defs>
</svg>
