<svg width="14" height="13" viewBox="0 0 14 13" fill="none" xmlns="http://www.w3.org/2000/svg">
<g clip-path="url(#clip0_475_663)">
<path d="M1.89062 1.5C1.06328 1.5 0.390625 2.17266 0.390625 3V3.75H13.8906V3C13.8906 2.17266 13.218 1.5 12.3906 1.5H1.89062ZM13.8906 6H0.390625V10.5C0.390625 11.3273 1.06328 12 1.89062 12H12.3906C13.218 12 13.8906 11.3273 13.8906 10.5V6ZM3.01562 9H4.51562C4.72188 9 4.89062 9.16875 4.89062 9.375C4.89062 9.58125 4.72188 9.75 4.51562 9.75H3.01562C2.80938 9.75 2.64062 9.58125 2.64062 9.375C2.64062 9.16875 2.80938 9 3.01562 9ZM5.64062 9.375C5.64062 9.16875 5.80937 9 6.01562 9H9.01562C9.22188 9 9.39062 9.16875 9.39062 9.375C9.39062 9.58125 9.22188 9.75 9.01562 9.75H6.01562C5.80937 9.75 5.64062 9.58125 5.64062 9.375Z" fill="#9CA3AF"/>
</g>
<defs>
<clipPath id="clip0_475_663">
<path d="M0.390625 0.75H13.8906V12.75H0.390625V0.75Z" fill="white"/>
</clipPath>
</defs>
</svg>
