<svg width="12" height="13" viewBox="0 0 12 13" fill="none" xmlns="http://www.w3.org/2000/svg">
<g clip-path="url(#clip0_475_671)">
<path d="M1.42188 0.75C1.83672 0.75 2.17188 1.08516 2.17188 1.5V1.875L3.78906 1.47187C4.68203 1.24922 5.62422 1.35234 6.44922 1.76484C7.53438 2.30859 8.81172 2.30859 9.89688 1.76484L10.1219 1.65234C10.6047 1.40859 11.1719 1.76016 11.1719 2.29922V8.85469C11.1719 9.16641 10.9773 9.44766 10.6844 9.55781L9.87109 9.8625C8.78828 10.268 7.58359 10.2047 6.55 9.68906C5.66172 9.24375 4.64453 9.13359 3.67891 9.375L2.17188 9.75V12C2.17188 12.4148 1.83672 12.75 1.42188 12.75C1.00703 12.75 0.671875 12.4148 0.671875 12V10.125V8.57812V2.25V1.5C0.671875 1.08516 1.00703 0.75 1.42188 0.75ZM2.17188 5.13516L3.67188 4.80937V6.34453L2.17188 6.67031V8.20312L3.31563 7.91719C3.43516 7.88672 3.55234 7.86094 3.67188 7.83984V6.34453L4.58359 6.14766C4.77812 6.10547 4.975 6.08906 5.17188 6.09844V4.59844C5.49062 4.60781 5.80937 4.65938 6.11875 4.74844L6.67188 4.91016V6.47344L5.69453 6.18516C5.52344 6.13594 5.34766 6.10547 5.17188 6.09609V7.76953C5.68281 7.81406 6.18672 7.92656 6.67188 8.10703V6.47344L7.20391 6.63047C7.52031 6.72422 7.84375 6.78047 8.17188 6.80391V5.29688C7.98906 5.27812 7.80625 5.24297 7.62812 5.19141L6.67188 4.91016V3.45703C6.36719 3.36797 6.06719 3.25078 5.77656 3.10547C5.58437 3.00938 5.38047 2.94141 5.17188 2.89922V4.59609C4.86719 4.58672 4.5625 4.61484 4.26484 4.68047L3.67188 4.80937V3.04688L2.17188 3.42188V5.13516ZM8.17188 8.61797C8.56563 8.65313 8.96641 8.60156 9.34375 8.45859L9.67188 8.33672V6.65391L9.48672 6.69609C9.05547 6.79688 8.6125 6.82969 8.17188 6.80156V8.61563V8.61797ZM9.67188 5.11641V3.45469C9.18203 3.59766 8.67813 3.66797 8.17188 3.66797V5.29688C8.49766 5.32969 8.82812 5.30859 9.14922 5.23594L9.67188 5.11406V5.11641Z" fill="#9CA3AF"/>
</g>
<defs>
<clipPath id="clip0_475_671">
<path d="M0.671875 0.75H11.1719V12.75H0.671875V0.75Z" fill="white"/>
</clipPath>
</defs>
</svg>
