<svg width="24" height="24" viewBox="0 0 24 24" fill="none" xmlns="http://www.w3.org/2000/svg">
<path d="M22 7.55711V21.1505C22 21.6138 21.6376 22.0001 21.2029 22.0001H2.7971C2.3624 22.0001 2 21.6138 2 21.1505V7.55711C2 7.09378 2.36242 6.70752 2.7971 6.70752H21.2029C21.6376 6.70752 22 7.09381 22 7.55711ZM16.3117 10.183C16.3117 9.64233 15.9132 9.21752 15.4059 9.21752H8.59433C8.0871 9.21752 7.68853 9.64233 7.68853 10.183C7.68853 10.7236 8.0871 11.1484 8.59433 11.1484H15.4059C15.9132 11.1484 16.3117 10.7236 16.3117 10.183Z" fill="#DC4326"/>
<path d="M21.0942 5.9351H2.90576C2.90576 5.74196 2.9419 5.51029 3.08697 5.31716L4.64481 3.30897C4.78963 3.11583 5.00724 3 5.26072 3H18.7028C18.9201 3 19.1375 3.11583 19.3187 3.30897L20.8765 5.31716C21.0577 5.5103 21.0942 5.74196 21.0942 5.9351Z" fill="#DC4326"/>
</svg>
