<svg width="24" height="24" viewBox="0 0 24 24" fill="none" xmlns="http://www.w3.org/2000/svg">
<path d="M22 7.55698V21.1504C22 21.6137 21.6376 21.9999 21.2029 21.9999H2.7971C2.3624 21.9999 2 21.6137 2 21.1504V7.55698C2 7.09366 2.36242 6.7074 2.7971 6.7074H21.2029C21.6376 6.7074 22 7.09368 22 7.55698ZM16.3117 10.1828C16.3117 9.64221 15.9132 9.2174 15.4059 9.2174H8.59433C8.0871 9.2174 7.68853 9.64221 7.68853 10.1828C7.68853 10.7235 8.0871 11.1483 8.59433 11.1483H15.4059C15.9132 11.1483 16.3117 10.7235 16.3117 10.1828Z" fill="#B5B5B5"/>
<path d="M21.0942 5.9351H2.90576C2.90576 5.74196 2.9419 5.51029 3.08697 5.31716L4.64481 3.30897C4.78963 3.11583 5.00724 3 5.26072 3H18.7028C18.9201 3 19.1375 3.11583 19.3187 3.30897L20.8765 5.31716C21.0577 5.5103 21.0942 5.74196 21.0942 5.9351Z" fill="#B5B5B5"/>
</svg>
