<svg width="22" height="22" viewBox="0 0 22 22" fill="none" xmlns="http://www.w3.org/2000/svg">
<path d="M9.7955 12.2047H1.36399C1.04853 12.2047 0.768909 12.0828 0.525141 11.8391C0.281373 11.5953 0.159489 11.3157 0.159489 11.0002C0.159489 10.6848 0.281373 10.4052 0.525141 10.1614C0.768909 9.91761 1.04853 9.79573 1.36399 9.79573L9.7955 9.79573L9.7955 1.36422C9.7955 1.04876 9.91738 0.76914 10.1612 0.525372C10.4049 0.281604 10.6845 0.15972 11 0.15972C11.3155 0.15972 11.5951 0.281604 11.8388 0.525372C12.0826 0.76914 12.2045 1.04876 12.2045 1.36422L12.2045 9.79573L20.636 9.79573C20.9515 9.79573 21.2311 9.91761 21.4749 10.1614C21.7186 10.4052 21.8405 10.6848 21.8405 11.0002C21.8405 11.3157 21.7186 11.5953 21.4749 11.8391C21.2311 12.0828 20.9515 12.2047 20.636 12.2047H12.2045L12.2045 20.6362C12.2045 20.9517 12.0826 21.2313 11.8388 21.4751C11.5951 21.7189 11.3155 21.8407 11 21.8407C10.6845 21.8407 10.4049 21.7189 10.1612 21.4751C9.91738 21.2313 9.7955 20.9517 9.7955 20.6362L9.7955 12.2047Z" fill="white"/>
</svg>
