<svg width="11" height="12" viewBox="0 0 11 12" fill="none" xmlns="http://www.w3.org/2000/svg">
<path d="M10.8501 6C10.8501 6.23213 10.7611 6.45652 10.5947 6.61901C10.4321 6.78537 10.2076 6.87822 9.97542 6.87822H6.47671V10.3756C6.47671 10.6078 6.38382 10.8322 6.2174 10.9947C6.05485 11.1571 5.83425 11.25 5.60203 11.25C5.36982 11.25 5.14534 11.1571 4.98279 10.9947C4.81637 10.8322 4.72348 10.6078 4.72348 10.3756V6.87822H1.22478C0.99256 6.87822 0.768085 6.78537 0.605534 6.61901C0.442984 6.45652 0.350098 6.23213 0.350098 6C0.350098 5.76787 0.442984 5.54735 0.605534 5.38099C0.768085 5.2185 0.99256 5.12564 1.22478 5.12564H4.72348V1.62822C4.72348 1.39609 4.81637 1.1717 4.98279 1.00921C5.14534 0.842852 5.36982 0.75 5.60203 0.75C5.83425 0.75 6.05485 0.842852 6.2174 1.00921C6.38382 1.1717 6.47671 1.39609 6.47671 1.62822V5.12564H9.97542C10.2076 5.12564 10.4321 5.2185 10.5947 5.38099C10.7611 5.54735 10.8501 5.76787 10.8501 6Z" fill="white"/>
</svg>
