<svg width="34" height="34" viewBox="0 0 34 34" fill="none" xmlns="http://www.w3.org/2000/svg">
<circle cx="17" cy="17" r="17" fill="#F1F1F1"/>
<path fill-rule="evenodd" clip-rule="evenodd" d="M21.6022 13.1637V14.4414C23.0375 14.8895 24.0833 16.1888 24.0833 17.7407V21.8547C24.0833 23.776 22.4905 25.3337 20.5268 25.3337H13.474C11.5094 25.3337 9.91663 23.776 9.91663 21.8547V17.7407C9.91663 16.1888 10.9632 14.8895 12.3977 14.4414V13.1637C12.4062 10.6793 14.4638 8.66699 16.9873 8.66699C19.5445 8.66699 21.6022 10.6793 21.6022 13.1637ZM17.0042 10.1162C18.7232 10.1162 20.1204 11.4826 20.1204 13.1637V14.2617H13.8796V13.1471C13.888 11.4743 15.2852 10.1162 17.0042 10.1162ZM17.7409 20.7128C17.7409 21.1185 17.4106 21.4415 16.9957 21.4415C16.5893 21.4415 16.259 21.1185 16.259 20.7128V18.8744C16.259 18.4769 16.5893 18.1539 16.9957 18.1539C17.4106 18.1539 17.7409 18.4769 17.7409 18.8744V20.7128Z" fill="#B5B5B5"/>
</svg>
