<svg width="34" height="34" viewBox="0 0 34 34" fill="none" xmlns="http://www.w3.org/2000/svg">
<circle cx="17" cy="17" r="17" fill="#F1F1F1"/>
<path d="M14.8181 16.7865C14.0651 16.7865 13.312 16.4986 12.712 15.9255C11.596 14.8576 10.561 12.9585 10.7681 11.1255C10.822 10.6455 10.9451 10.0126 11.4251 9.37051C12.2381 8.28152 13.4681 7.65152 14.797 7.64844C16.1531 7.64844 17.38 8.26945 18.211 9.36742C18.694 10.0154 18.817 10.6484 18.871 11.1254V11.1404C19.0481 12.9974 18.022 14.8844 16.927 15.9284C16.327 16.5013 15.5741 16.7863 14.821 16.7863L14.8181 16.7865Z" fill="#B5B5B5"/>
<path d="M17.4491 18.5507C17.4491 18.4277 17.4581 18.3078 17.4671 18.1877C17.2391 18.1548 17.005 18.1367 16.771 18.1367H12.8621C11.9171 18.1367 11.0021 18.4097 10.2161 18.9257C8.914 19.7807 8.13708 21.2928 8.13708 22.9697V23.5547C8.13708 25.0847 9.38207 26.3297 10.915 26.3297H18.7239C20.2539 26.3297 21.5019 25.0847 21.5019 23.5547V23.2276C19.2158 22.8947 17.452 20.9266 17.452 18.5476L17.4491 18.5507Z" fill="#B5B5B5"/>
<path d="M22.1829 14.8662C20.1519 14.8662 18.4989 16.5192 18.4989 18.5502C18.4989 20.5813 20.1518 22.2342 22.1829 22.2342C24.214 22.2342 25.8669 20.5813 25.8669 18.5502C25.8669 16.5192 24.214 14.8662 22.1829 14.8662ZM23.8508 18.904C24.2138 19.267 24.2138 19.8551 23.8508 20.2151C23.4879 20.578 22.8998 20.578 22.5398 20.2151L22.1859 19.8611L21.8319 20.2151C21.4689 20.578 20.8809 20.578 20.5209 20.2151C20.1579 19.8521 20.1579 19.264 20.5209 18.904L20.8748 18.5501L20.5209 18.1961C20.1579 17.8332 20.1579 17.2451 20.5209 16.8851C20.8838 16.5221 21.4719 16.5221 21.8319 16.8851L22.1859 17.2391L22.5398 16.8851C22.9028 16.5221 23.4908 16.5221 23.8508 16.8851C24.2138 17.248 24.2138 17.8361 23.8508 18.1961L23.4969 18.5501L23.8508 18.904Z" fill="#B5B5B5"/>
</svg>
