<svg width="34" height="34" viewBox="0 0 34 34" fill="none" xmlns="http://www.w3.org/2000/svg">
<circle cx="17" cy="17" r="17" fill="#F1F1F1"/>
<path d="M16.5197 8C11.8249 8 8 11.8249 8 16.5273C8 18.6723 8.78001 20.6897 10.2124 22.2647L9.59751 25.0922C9.46207 25.7351 10.1388 26.205 10.6925 25.9098L13.37 24.4474C14.36 24.8449 15.4175 25.0474 16.5199 25.0474C21.215 25.0474 25.0396 21.2299 25.0396 16.5277C25.0396 11.8253 21.2145 8.00036 16.5199 8.00036L16.5197 8ZM17.0447 20.9597C16.7436 21.2608 16.2689 21.2415 15.9872 20.9597C15.6843 20.64 15.6912 20.1983 15.9872 19.9023C16.2695 19.6199 16.733 19.5906 17.0447 19.9023C17.2999 20.1575 17.3757 20.6288 17.0447 20.9597ZM17.5772 16.9697C17.4271 17.0297 17.2697 17.1573 17.2697 17.3522V17.8097C17.2697 18.2222 16.9323 18.5597 16.5197 18.5597C16.0997 18.5597 15.7696 18.2223 15.7696 17.8097V17.3522C15.7696 16.5722 16.2646 15.8747 17.0296 15.5748C17.6596 15.3273 18.0196 14.6823 17.9071 14.0072C17.8171 13.4523 17.3521 12.9797 16.797 12.8747C15.8928 12.7002 15.1095 13.3824 15.1095 14.2547C15.1095 14.6672 14.7721 15.0048 14.3595 15.0048C13.947 15.0048 13.6094 14.6673 13.6094 14.2547C13.6094 12.4202 15.2817 11.0529 17.0819 11.3973C18.2444 11.6223 19.1969 12.5972 19.3918 13.7597C19.6171 15.1398 18.8746 16.4598 17.5772 16.9697Z" fill="#B5B5B5"/>
</svg>
