<svg width="34" height="34" viewBox="0 0 34 34" fill="none" xmlns="http://www.w3.org/2000/svg">
<circle cx="17" cy="17" r="17" fill="#F1F1F1"/>
<path d="M23.4285 14.4928V14.4285C23.4285 12.7235 22.7512 11.0884 21.5455 9.88296C20.3401 8.67732 18.7049 8 17 8C15.295 8 13.6598 8.67732 12.4544 9.88296C11.2488 11.0884 10.5714 12.7236 10.5714 14.4285V14.4928C9.84593 14.642 9.19403 15.0368 8.72566 15.6107C8.25714 16.1843 8.00099 16.9021 8 17.6428V18.2857C8.001 19.1379 8.33994 19.9548 8.94262 20.5574C9.54514 21.16 10.3621 21.499 11.2143 21.5H12.5C12.841 21.5 13.168 21.3645 13.4092 21.1235C13.6503 20.8822 13.7857 20.5552 13.7857 20.2143V15.7142C13.7857 15.3733 13.6503 15.0463 13.4092 14.8051C13.168 14.564 12.841 14.4285 12.5 14.4285H11.8572C11.8572 12.5912 12.8374 10.8934 14.4286 9.97479C16.0198 9.05598 17.9803 9.05598 19.5715 9.97479C21.1627 10.8935 22.1429 12.5913 22.1429 14.4285H21.5001C21.1591 14.4285 20.8321 14.564 20.5909 14.8051C20.3498 15.0463 20.2143 15.3733 20.2143 15.7142V20.2143C20.2143 20.5552 20.3498 20.8823 20.5909 21.1235C20.8321 21.3645 21.1591 21.5 21.5001 21.5H22.1429V22.7857C22.1429 22.9562 22.0752 23.1198 21.9547 23.2403C21.8341 23.3608 21.6705 23.4286 21.5001 23.4286H19.4532C19.3206 23.0539 19.0757 22.7292 18.7517 22.499C18.4275 22.2688 18.0404 22.1444 17.6429 22.1428H16.3571C15.6681 22.1428 15.0314 22.5105 14.687 23.1071C14.3425 23.7038 14.3425 24.4391 14.687 25.0357C15.0314 25.6324 15.6681 26 16.3571 26H17.6429C18.0403 25.9984 18.4275 25.874 18.7517 25.6438C19.0757 25.4137 19.3206 25.089 19.4532 24.7143H21.5001C22.0116 24.7143 22.5021 24.5111 22.8638 24.1495C23.2255 23.7877 23.4286 23.2973 23.4286 22.7857V21.5C23.4256 21.4783 23.4213 21.4568 23.4157 21.4357C24.1438 21.2893 24.7987 20.8957 25.2699 20.3216C25.7408 19.7475 25.9988 19.0283 26.0001 18.2857V17.6428C25.9991 16.9021 25.743 16.1843 25.2744 15.6106C24.8061 15.0368 24.1542 14.642 23.4287 14.4928L23.4285 14.4928Z" fill="#B5B5B5"/>
</svg>
