<svg width="34" height="34" viewBox="0 0 34 34" fill="none" xmlns="http://www.w3.org/2000/svg">
<circle cx="17" cy="17" r="17" fill="#F1F1F1"/>
<path fill-rule="evenodd" clip-rule="evenodd" d="M17.712 16.3933C18.0563 16.3933 18.3286 16.6608 18.3286 16.9993C18.3286 17.3298 18.0563 17.6053 17.712 17.6053H12.9074V21.3673C12.9074 23.2956 14.5009 24.8696 16.4708 24.8696H20.3705C22.3324 24.8696 23.9259 23.3034 23.9259 21.3752V12.6312C23.9259 10.6951 22.3244 9.12891 20.3625 9.12891H16.4548C14.5009 9.12891 12.9074 10.6951 12.9074 12.6234V16.3933H17.712ZM10.0503 14.2763L7.75213 16.5666C7.63408 16.6846 7.57112 16.8342 7.57112 16.9994C7.57112 17.1568 7.63408 17.3142 7.75213 17.4244L10.0503 19.7147C10.1683 19.8328 10.3257 19.8957 10.4753 19.8957C10.6327 19.8957 10.7901 19.8328 10.9082 19.7147C11.1443 19.4786 11.1443 19.093 10.9082 18.8568L9.64889 17.6055H12.9072V16.3934H9.64889L10.9082 15.142C11.1443 14.9059 11.1443 14.5203 10.9082 14.2842C10.672 14.0402 10.2864 14.0402 10.0503 14.2763Z" fill="#B5B5B5"/>
</svg>
