<svg width="34" height="34" viewBox="0 0 34 34" fill="none" xmlns="http://www.w3.org/2000/svg">
<circle cx="17" cy="17" r="17" fill="#F1F1F1"/>
<path fill-rule="evenodd" clip-rule="evenodd" d="M22.5892 14.3306C22.5892 15.3772 22.8658 15.9941 23.4746 16.705C23.9359 17.2287 24.0833 17.901 24.0833 18.6303C24.0833 19.3589 23.8439 20.0504 23.3644 20.6119C22.7366 21.2851 21.8512 21.7148 20.9477 21.7895C19.6382 21.9011 18.328 21.9951 17.0004 21.9951C15.6719 21.9951 14.3625 21.9389 13.0531 21.7895C12.1487 21.7148 11.2633 21.2851 10.6363 20.6119C10.1568 20.0504 9.91663 19.3589 9.91663 18.6303C9.91663 17.901 10.0649 17.2287 10.5254 16.705C11.1532 15.9941 11.4116 15.3772 11.4116 14.3306V13.9756C11.4116 12.5739 11.7611 11.6574 12.4808 10.7602C13.5508 9.45174 15.2661 8.66699 16.9631 8.66699H17.0376C18.7711 8.66699 20.5418 9.48951 21.5937 10.8542C22.2761 11.733 22.5892 12.6109 22.5892 13.9756V14.3306ZM14.5614 23.7177C14.5614 23.298 14.9465 23.1058 15.3026 23.0236C15.7192 22.9355 18.2577 22.9355 18.6743 23.0236C19.0304 23.1058 19.4155 23.298 19.4155 23.7177C19.3948 24.1172 19.1604 24.4714 18.8366 24.6963C18.4167 25.0236 17.9239 25.2309 17.4088 25.3056C17.1239 25.3426 16.8439 25.3434 16.569 25.3056C16.053 25.2309 15.5602 25.0236 15.1411 24.6955C14.8164 24.4714 14.5821 24.1172 14.5614 23.7177Z" fill="#B5B5B5"/>
</svg>
