<svg width="34" height="34" viewBox="0 0 34 34" fill="none" xmlns="http://www.w3.org/2000/svg">
<circle cx="17" cy="17" r="17" fill="#F1F1F1"/>
<path fill-rule="evenodd" clip-rule="evenodd" d="M16.7734 25.2617C16.8657 25.3099 16.9689 25.3344 17.0721 25.3336C17.1753 25.3328 17.2776 25.3075 17.3707 25.2584L20.344 23.669C21.1871 23.2196 21.8474 22.717 22.3625 22.1319C23.4825 20.8572 24.0941 19.2302 24.0832 17.5525L24.0479 12.0186C24.0446 11.3813 23.6259 10.8125 23.0068 10.6058L17.4756 8.74996C17.1425 8.63719 16.7776 8.63964 16.4504 8.75568L10.9402 10.6777C10.3244 10.8926 9.91331 11.4654 9.91667 12.1036L9.95191 17.6334C9.96281 19.3135 10.5954 20.9332 11.7338 22.1949C12.254 22.7718 12.9201 23.267 13.7725 23.7091L16.7734 25.2617ZM15.9863 18.7578C16.1105 18.8771 16.2715 18.9359 16.4326 18.9343C16.5937 18.9335 16.7539 18.873 16.8764 18.752L20.1257 15.5487C20.3698 15.3077 20.3673 14.9203 20.1206 14.6825C19.8731 14.4447 19.4746 14.4464 19.2305 14.6874L16.4234 17.4544L15.274 16.3496C15.0265 16.1118 14.6289 16.1142 14.3839 16.3553C14.1398 16.5964 14.1423 16.9837 14.3898 17.2215L15.9863 18.7578Z" fill="#B5B5B5"/>
</svg>
