<svg width="34" height="34" viewBox="0 0 34 34" fill="none" xmlns="http://www.w3.org/2000/svg">
<circle cx="17" cy="17" r="17" fill="#F1F1F1"/>
<path fill-rule="evenodd" clip-rule="evenodd" d="M13.5083 8.66699H20.4925C23.0667 8.66699 24.5 10.1503 24.5 12.692V21.3003C24.5 23.8837 23.0667 25.3337 20.4925 25.3337H13.5083C10.975 25.3337 9.5 23.8837 9.5 21.3003V12.692C9.5 10.1503 10.975 8.66699 13.5083 8.66699ZM13.7333 12.5503V12.542H16.2242C16.5833 12.542 16.875 12.8337 16.875 13.1912C16.875 13.5587 16.5833 13.8503 16.2242 13.8503H13.7333C13.3742 13.8503 13.0833 13.5587 13.0833 13.2003C13.0833 12.842 13.3742 12.5503 13.7333 12.5503ZM13.7333 17.617H20.2667C20.625 17.617 20.9167 17.3253 20.9167 16.967C20.9167 16.6087 20.625 16.3162 20.2667 16.3162H13.7333C13.3742 16.3162 13.0833 16.6087 13.0833 16.967C13.0833 17.3253 13.3742 17.617 13.7333 17.617ZM13.7333 21.4253H20.2667C20.5992 21.392 20.85 21.1078 20.85 20.7753C20.85 20.4337 20.5992 20.1503 20.2667 20.117H13.7333C13.4833 20.092 13.2417 20.2087 13.1083 20.4253C12.975 20.6337 12.975 20.9087 13.1083 21.1253C13.2417 21.3337 13.4833 21.4587 13.7333 21.4253Z" fill="#B5B5B5"/>
</svg>
