<svg width="16" height="16" viewBox="0 0 16 16" fill="none" xmlns="http://www.w3.org/2000/svg">
<path fill-rule="evenodd" clip-rule="evenodd" d="M16 8C16 12.4183 12.4183 16 8 16C3.58172 16 4.27116e-08 12.4183 9.5399e-08 8C1.48086e-07 3.58172 3.58172 -1.48086e-07 8 -9.5399e-08C12.4183 -4.27116e-08 16 3.58172 16 8ZM7.85671 8.46038C7.95562 8.5669 8.1242 8.5669 8.22311 8.46038L10.0903 6.44954C10.3722 6.14601 10.8467 6.12843 11.1503 6.41029C11.4538 6.69214 11.4714 7.16669 11.1895 7.47022L9.3223 9.48106C8.62995 10.2267 7.44988 10.2267 6.75752 9.48106L4.89032 7.47022C4.60847 7.16669 4.62604 6.69214 4.92958 6.41028C5.23311 6.12843 5.70766 6.14601 5.98951 6.44954L7.85671 8.46038Z" fill="#1C1C1C"/>
</svg>
