<svg width="31" height="31" viewBox="0 0 31 31" fill="none" xmlns="http://www.w3.org/2000/svg">
<g opacity="0.5">
<path d="M24.0669 6.59106C22.8565 6.59106 21.6732 6.95001 20.6668 7.6225C19.6603 8.29499 18.8759 9.25083 18.4127 10.3691C17.9494 11.4875 17.8282 12.718 18.0644 13.9052C18.3005 15.0924 18.8834 16.1829 19.7393 17.0388C20.5953 17.8948 21.6858 18.4777 22.873 18.7138C24.0602 18.9499 25.2907 18.8287 26.409 18.3655C27.5273 17.9023 28.4832 17.1179 29.1557 16.1114C29.8282 15.105 30.1871 13.9217 30.1871 12.7112C30.1871 11.0881 29.5423 9.53137 28.3946 8.38362C27.2468 7.23587 25.6901 6.59106 24.0669 6.59106ZM23.5962 12.2404H24.5377C24.9123 12.2404 25.2715 12.3893 25.5364 12.6541C25.8013 12.919 25.9501 13.2782 25.9501 13.6528C25.9501 14.0274 25.8013 14.3866 25.5364 14.6515C25.2715 14.9163 24.9123 15.0651 24.5377 15.0651V15.5359C24.5377 15.6608 24.4881 15.7805 24.3998 15.8688C24.3116 15.9571 24.1918 16.0067 24.0669 16.0067C23.9421 16.0067 23.8223 15.9571 23.7341 15.8688C23.6458 15.7805 23.5962 15.6608 23.5962 15.5359V15.0651H22.6546C22.5297 15.0651 22.41 15.0155 22.3217 14.9273C22.2334 14.839 22.1838 14.7192 22.1838 14.5944C22.1838 14.4695 22.2334 14.3498 22.3217 14.2615C22.41 14.1732 22.5297 14.1236 22.6546 14.1236H24.5377C24.6626 14.1236 24.7823 14.074 24.8706 13.9857C24.9589 13.8974 25.0085 13.7777 25.0085 13.6528C25.0085 13.5279 24.9589 13.4082 24.8706 13.3199C24.7823 13.2316 24.6626 13.182 24.5377 13.182H23.5962C23.2216 13.182 22.8624 13.0332 22.5975 12.7683C22.3326 12.5035 22.1838 12.1442 22.1838 11.7697C22.1838 11.3951 22.3326 11.0359 22.5975 10.771C22.8624 10.5061 23.2216 10.3573 23.5962 10.3573V9.88654C23.5962 9.76168 23.6458 9.64193 23.7341 9.55365C23.8223 9.46536 23.9421 9.41576 24.0669 9.41576C24.1918 9.41576 24.3116 9.46536 24.3998 9.55365C24.4881 9.64193 24.5377 9.76168 24.5377 9.88654V10.3573H25.4793C25.6042 10.3573 25.7239 10.4069 25.8122 10.4952C25.9005 10.5835 25.9501 10.7032 25.9501 10.8281C25.9501 10.953 25.9005 11.0727 25.8122 11.161C25.7239 11.2493 25.6042 11.2989 25.4793 11.2989H23.5962C23.4713 11.2989 23.3516 11.3485 23.2633 11.4368C23.175 11.5251 23.1254 11.6448 23.1254 11.7697C23.1254 11.8945 23.175 12.0143 23.2633 12.1026C23.3516 12.1908 23.4713 12.2404 23.5962 12.2404Z" fill="#00394D"/>
<path fill-rule="evenodd" clip-rule="evenodd" d="M6.65396 13.4328C7.09552 13.8744 7.695 14.1235 8.3204 14.1235L14.3364 14.1235C14.7701 14.1235 15.1221 13.7715 15.1221 13.3378L15.1221 7.32181C15.1221 6.69641 14.8738 6.09693 14.4315 5.65458C13.5397 4.76283 11.5213 2.74439 9.92713 1.15023C9.19015 0.413261 8.19155 -3.02943e-07 7.14895 -3.48516e-07C6.10713 -3.94056e-07 5.10852 0.413261 4.37155 1.15023C3.65658 1.86521 2.86461 2.65721 2.14963 3.37296C1.41266 4.10915 0.998606 5.10852 0.998605 6.15034C0.998605 7.19215 1.41266 8.19155 2.14963 8.92852L6.65396 13.4328ZM11.9793 10.2178C11.9793 10.6515 11.6273 11.0035 11.1936 11.0035C10.76 11.0035 10.408 10.6515 10.408 10.2178C10.408 9.78413 10.76 9.43214 11.1936 9.43214C11.6273 9.43214 11.9793 9.78413 11.9793 10.2178Z" fill="#00394D"/>
</g>
<path d="M6.63982 29.2296C6.63982 30.2073 5.84735 30.9998 4.86965 30.9998C3.89195 30.9998 3.09949 30.2073 3.09949 29.2296C3.09949 28.2519 3.89195 27.4595 4.86965 27.4595C5.84735 27.4595 6.63982 28.2519 6.63982 29.2296Z" fill="#DC4326"/>
<path d="M20.0931 29.2296C20.0931 30.2073 19.3006 30.9998 18.3229 30.9998C17.3452 30.9998 16.5527 30.2073 16.5527 29.2296C16.5527 28.2519 17.3452 27.4595 18.3229 27.4595C19.3006 27.4595 20.0931 28.2519 20.0931 29.2296Z" fill="#DC4326"/>
<path d="M4.86972 26.7513C5.5269 26.7513 6.15719 27.0124 6.62216 27.4771C7.08683 27.942 7.34794 28.5723 7.34794 29.2295H14.4286V17.1924H0.975342V29.2295H2.39147C2.39147 28.5723 2.65258 27.942 3.11725 27.4771C3.58223 27.0124 4.21252 26.7513 4.86969 26.7513H4.86972Z" fill="#DC4326"/>
<path d="M21.5093 29.2298V22.8572L18.677 19.3169H15.1367V29.2298H15.8448C15.8448 28.3445 16.317 27.5263 17.0839 27.0835C17.8507 26.641 18.7952 26.641 19.5621 27.0835C20.329 27.5264 20.8012 28.3445 20.8012 29.2298H21.5093ZM16.5529 22.8572V20.733H18.323L20.0932 22.8572H16.5529Z" fill="#DC4326"/>
</svg>
