<svg width="28" height="28" viewBox="0 0 28 28" fill="none" xmlns="http://www.w3.org/2000/svg">
<path d="M21.0233 6.02513C20.1469 5.15366 18.9624 4.66255 17.7264 4.65818C16.4905 4.65381 15.3025 5.13654 14.42 6.0018L6.64997 13.6365C6.42966 13.8534 6.13238 13.9742 5.82321 13.9724C5.51404 13.9707 5.21815 13.8465 5.00031 13.6271C4.89263 13.5186 4.80749 13.3898 4.74976 13.2483C4.69204 13.1067 4.66289 12.9551 4.66397 12.8022C4.66505 12.6493 4.69636 12.4982 4.75608 12.3574C4.81581 12.2167 4.90277 12.0891 5.01197 11.9821L12.7796 4.3498C14.1012 3.05258 15.8807 2.32834 17.7325 2.33402C19.5844 2.3397 21.3594 3.07483 22.673 4.38013C23.3246 5.02787 23.8418 5.79806 24.1947 6.6464C24.5476 7.49474 24.7293 8.40449 24.7293 9.3233C24.7293 10.2421 24.5476 11.1519 24.1947 12.0002C23.8418 12.8485 23.3246 13.6187 22.673 14.2665L12.565 24.3325C11.7055 25.1868 10.5428 25.6664 9.33097 25.6664C8.1191 25.6664 6.95646 25.1868 6.09697 24.3325C5.67248 23.9103 5.33562 23.4084 5.10575 22.8556C4.87589 22.3028 4.75755 21.71 4.75755 21.1113C4.75755 20.5126 4.87589 19.9198 5.10575 19.367C5.33562 18.8142 5.67248 18.3123 6.09697 17.8901L15.5236 8.50313C15.7426 8.2857 16.0387 8.16367 16.3473 8.16367C16.6559 8.16367 16.952 8.2857 17.171 8.50313C17.2791 8.61087 17.3648 8.73887 17.4233 8.87981C17.4818 9.02076 17.512 9.17186 17.512 9.32447C17.512 9.47707 17.4818 9.62818 17.4233 9.76912C17.3648 9.91006 17.2791 10.0381 17.171 10.1458L7.74664 19.5328C7.53859 19.7397 7.37349 19.9856 7.26083 20.2565C7.14816 20.5274 7.09017 20.8179 7.09017 21.1113C7.09017 21.4047 7.14816 21.6952 7.26083 21.9661C7.37349 22.237 7.53859 22.4829 7.74664 22.6898C8.16785 23.1098 8.73844 23.3457 9.33331 23.3457C9.92817 23.3457 10.4988 23.1098 10.92 22.6898L21.0233 12.6238C21.4582 12.1914 21.8033 11.6773 22.0388 11.1111C22.2742 10.5449 22.3955 9.9377 22.3955 9.32447C22.3955 8.71123 22.2742 8.10404 22.0388 7.53782C21.8033 6.9716 21.4582 6.45751 21.0233 6.02513Z" fill="#9D9D9D"/>
</svg>
