<svg width="32" height="32" viewBox="0 0 32 32" fill="none" xmlns="http://www.w3.org/2000/svg">
<rect width="32" height="32" rx="10" fill="white"/>
<path fill-rule="evenodd" clip-rule="evenodd" d="M10.25 7.5C7.5 7.5 7.5 7.708 7.5 10.25V10.275C7.5 11.382 7.5 12.182 7.771 12.52C8.036 12.848 8.823 13 10.25 13C11.677 13 12.464 12.847 12.729 12.519C13 12.182 13 11.382 13 10.274C13 7.708 13 7.5 10.25 7.5ZM10.25 14.5C8.564 14.5 7.299 14.323 6.604 13.46C6 12.711 6 11.689 6 10.275L6.75 10.25H6C6 7.38 6.181 6 10.25 6C14.319 6 14.5 7.38 14.5 10.25C14.5 11.688 14.5 12.711 13.896 13.46C13.201 14.323 11.936 14.5 10.25 14.5Z" fill="#130F26"/>
<path fill-rule="evenodd" clip-rule="evenodd" d="M21.25 7.5C18.5 7.5 18.5 7.708 18.5 10.25V10.275C18.5 11.382 18.5 12.182 18.771 12.52C19.036 12.848 19.823 13 21.25 13C22.677 13 23.464 12.847 23.729 12.519C24 12.182 24 11.382 24 10.274C24 7.708 24 7.5 21.25 7.5ZM21.25 14.5C19.564 14.5 18.299 14.323 17.604 13.46C17 12.711 17 11.689 17 10.275L17.75 10.25H17C17 7.38 17.181 6 21.25 6C25.319 6 25.5 7.38 25.5 10.25C25.5 11.688 25.5 12.711 24.896 13.46C24.201 14.323 22.936 14.5 21.25 14.5Z" fill="#130F26"/>
<path fill-rule="evenodd" clip-rule="evenodd" d="M10.25 18.5C7.5 18.5 7.5 18.708 7.5 21.25V21.275C7.5 22.382 7.5 23.182 7.771 23.52C8.036 23.848 8.823 24 10.25 24C11.677 24 12.464 23.847 12.729 23.519C13 23.182 13 22.382 13 21.274C13 18.708 13 18.5 10.25 18.5ZM10.25 25.5C8.564 25.5 7.299 25.323 6.604 24.46C6 23.711 6 22.689 6 21.275L6.75 21.25H6C6 18.38 6.181 17 10.25 17C14.319 17 14.5 18.38 14.5 21.25C14.5 22.688 14.5 23.711 13.896 24.46C13.201 25.323 11.936 25.5 10.25 25.5Z" fill="#130F26"/>
<path fill-rule="evenodd" clip-rule="evenodd" d="M21.25 18.5C18.5 18.5 18.5 18.708 18.5 21.25V21.275C18.5 22.382 18.5 23.182 18.771 23.52C19.036 23.848 19.823 24 21.25 24C22.677 24 23.464 23.847 23.729 23.519C24 23.182 24 22.382 24 21.274C24 18.708 24 18.5 21.25 18.5ZM21.25 25.5C19.564 25.5 18.299 25.323 17.604 24.46C17 23.711 17 22.689 17 21.275L17.75 21.25H17C17 18.38 17.181 17 21.25 17C25.319 17 25.5 18.38 25.5 21.25C25.5 22.688 25.5 23.711 24.896 24.46C24.201 25.323 22.936 25.5 21.25 25.5Z" fill="#130F26"/>
</svg>
