<svg width="100" height="100" viewBox="0 0 100 100" fill="none" xmlns="http://www.w3.org/2000/svg">
<rect x="1" y="1" width="98" height="98" rx="15" fill="#F8F8F8" stroke="#D9D9D9" stroke-linecap="round" stroke-linejoin="round" stroke-dasharray="10 10"/>
<path d="M18.8711 62.4346V67.9775C18.8711 68.5791 18.7461 69.1162 18.4961 69.5889C18.25 70.0615 17.877 70.4346 17.377 70.708C16.877 70.9814 16.248 71.1182 15.4902 71.1182C14.416 71.1182 13.5957 70.8311 13.0293 70.2568C12.4668 69.6787 12.1855 68.9111 12.1855 67.9541V62.4346H13.3926V67.9072C13.3926 68.6299 13.5723 69.1748 13.9316 69.542C14.2949 69.9092 14.834 70.0928 15.5488 70.0928C16.041 70.0928 16.4434 70.0049 16.7559 69.8291C17.0684 69.6494 17.2988 69.3975 17.4473 69.0732C17.5996 68.7451 17.6758 68.3564 17.6758 67.9072V62.4346H18.8711ZM24.1328 64.4268C24.918 64.4268 25.5449 64.7061 26.0137 65.2646C26.4863 65.8193 26.7227 66.6494 26.7227 67.7549C26.7227 68.4893 26.6133 69.1064 26.3945 69.6064C26.1797 70.1025 25.875 70.4795 25.4805 70.7373C25.0898 70.9912 24.6309 71.1182 24.1035 71.1182C23.7715 71.1182 23.4805 71.0752 23.2305 70.9893C22.9805 70.8994 22.7656 70.7822 22.5859 70.6377C22.4102 70.4893 22.2617 70.3311 22.1406 70.1631H22.0645C22.0801 70.3154 22.0957 70.4932 22.1113 70.6963C22.1309 70.8955 22.1406 71.0752 22.1406 71.2354V73.8721H20.957V64.5439H21.9238L22.082 65.4697H22.1406C22.2617 65.2783 22.4102 65.1045 22.5859 64.9482C22.7656 64.7881 22.9824 64.6611 23.2363 64.5674C23.4902 64.4736 23.7891 64.4268 24.1328 64.4268ZM23.8633 65.3994C23.4492 65.3994 23.1172 65.4814 22.8672 65.6455C22.6211 65.8057 22.4395 66.0459 22.3223 66.3662C22.209 66.6865 22.1484 67.0889 22.1406 67.5732V67.7607C22.1406 68.2764 22.1953 68.7119 22.3047 69.0674C22.4141 69.4189 22.5957 69.6885 22.8496 69.876C23.1035 70.0596 23.4453 70.1514 23.875 70.1514C24.2422 70.1514 24.5469 70.0518 24.7891 69.8525C25.0352 69.6533 25.2168 69.3721 25.334 69.0088C25.4551 68.6455 25.5156 68.2236 25.5156 67.7432C25.5156 67.0127 25.3809 66.4404 25.1113 66.0264C24.8418 65.6084 24.4258 65.3994 23.8633 65.3994ZM29.5469 71.001H28.3633V61.8838H29.5469V71.001ZM37.1934 67.7607C37.1934 68.292 37.123 68.7666 36.9824 69.1846C36.8457 69.5986 36.6445 69.9502 36.3789 70.2393C36.1172 70.5244 35.8008 70.7432 35.4297 70.8955C35.0586 71.0439 34.6387 71.1182 34.1699 71.1182C33.7324 71.1182 33.3301 71.0439 32.9629 70.8955C32.5996 70.7432 32.2852 70.5244 32.0195 70.2393C31.7539 69.9502 31.5488 69.5986 31.4043 69.1846C31.2598 68.7666 31.1875 68.292 31.1875 67.7607C31.1875 67.0537 31.3086 66.4521 31.5508 65.9561C31.793 65.4561 32.1387 65.0771 32.5879 64.8193C33.041 64.5576 33.5801 64.4268 34.2051 64.4268C34.7988 64.4268 35.3203 64.5576 35.7695 64.8193C36.2188 65.0811 36.5684 65.46 36.8184 65.9561C37.0684 66.4521 37.1934 67.0537 37.1934 67.7607ZM32.3945 67.7607C32.3945 68.2568 32.457 68.6846 32.582 69.0439C32.7109 69.3994 32.9062 69.6729 33.168 69.8643C33.4336 70.0557 33.7754 70.1514 34.1934 70.1514C34.6035 70.1514 34.9414 70.0557 35.207 69.8643C35.4727 69.6729 35.668 69.3994 35.793 69.0439C35.918 68.6846 35.9805 68.2568 35.9805 67.7607C35.9805 67.2686 35.918 66.8467 35.793 66.4951C35.668 66.1436 35.4727 65.874 35.207 65.6865C34.9453 65.499 34.6035 65.4053 34.1816 65.4053C33.5645 65.4053 33.1113 65.6123 32.8223 66.0264C32.5371 66.4365 32.3945 67.0146 32.3945 67.7607ZM41.3008 64.4326C42.0977 64.4326 42.6934 64.6104 43.0879 64.9658C43.4824 65.3174 43.6797 65.874 43.6797 66.6357V71.001H42.8359L42.6074 70.0635H42.5605C42.3809 70.2979 42.1934 70.4932 41.998 70.6494C41.8027 70.8057 41.5762 70.9229 41.3184 71.001C41.0645 71.0791 40.7539 71.1182 40.3867 71.1182C39.9961 71.1182 39.6484 71.0479 39.3438 70.9072C39.0391 70.7666 38.7988 70.5557 38.623 70.2744C38.4512 69.9893 38.3652 69.6279 38.3652 69.1904C38.3652 68.5342 38.6172 68.0361 39.1211 67.6963C39.625 67.3564 40.3887 67.1709 41.4121 67.1396L42.5254 67.0928V66.7295C42.5254 66.2256 42.4121 65.8701 42.1855 65.6631C41.9629 65.4561 41.6504 65.3525 41.248 65.3525C40.916 65.3525 40.5977 65.4014 40.293 65.499C39.9883 65.5928 39.6953 65.7061 39.4141 65.8389L39.0391 64.9834C39.3438 64.8271 39.6895 64.6963 40.0762 64.5908C40.4668 64.4854 40.875 64.4326 41.3008 64.4326ZM42.5137 67.8662L41.6113 67.9072C40.8652 67.9346 40.3398 68.0596 40.0352 68.2822C39.7344 68.501 39.584 68.8076 39.584 69.2021C39.584 69.5459 39.6875 69.7979 39.8945 69.958C40.1016 70.1182 40.375 70.1982 40.7148 70.1982C41.2383 70.1982 41.668 70.0518 42.0039 69.7588C42.3438 69.4619 42.5137 69.0244 42.5137 68.4463V67.8662ZM47.8809 71.1182C47.0918 71.1182 46.4609 70.8389 45.9883 70.2803C45.5195 69.7217 45.2852 68.8936 45.2852 67.7959C45.2852 66.6865 45.5234 65.8486 46 65.2822C46.4805 64.7119 47.1172 64.4268 47.9102 64.4268C48.2422 64.4268 48.5332 64.4717 48.7832 64.5615C49.0332 64.6514 49.248 64.7705 49.4277 64.9189C49.6113 65.0674 49.7637 65.2354 49.8848 65.4229H49.9551C49.9355 65.3018 49.916 65.1318 49.8965 64.9131C49.877 64.6943 49.8672 64.5029 49.8672 64.3389V61.8838H51.0449V71.001H50.1133L49.9199 70.1045H49.8672C49.75 70.292 49.5996 70.4639 49.416 70.6201C49.2363 70.7725 49.0195 70.8936 48.7656 70.9834C48.5156 71.0732 48.2207 71.1182 47.8809 71.1182ZM48.1562 70.1572C48.793 70.1572 49.2422 69.9736 49.5039 69.6064C49.7695 69.2393 49.9043 68.6943 49.9082 67.9717V67.79C49.9082 67.0205 49.7812 66.4307 49.5273 66.0205C49.2773 65.6064 48.8164 65.3994 48.1445 65.3994C47.5977 65.3994 47.1855 65.6143 46.9082 66.0439C46.6309 66.4697 46.4922 67.0615 46.4922 67.8193C46.4922 68.5693 46.6309 69.1475 46.9082 69.5537C47.1855 69.9561 47.6016 70.1572 48.1562 70.1572ZM57.3496 64.5439V71.001H56.1719V64.5439H57.3496ZM56.7695 62.1006C56.957 62.1006 57.1172 62.1553 57.25 62.2646C57.3867 62.374 57.4551 62.5518 57.4551 62.7979C57.4551 63.0439 57.3867 63.2236 57.25 63.3369C57.1172 63.4463 56.957 63.501 56.7695 63.501C56.5781 63.501 56.416 63.4463 56.2832 63.3369C56.1543 63.2236 56.0898 63.0439 56.0898 62.7979C56.0898 62.5518 56.1543 62.374 56.2832 62.2646C56.416 62.1553 56.5781 62.1006 56.7695 62.1006ZM66.5137 64.4268C67.2285 64.4268 67.7676 64.6143 68.1309 64.9893C68.498 65.3604 68.6816 65.9561 68.6816 66.7764V71.001H67.5156V66.9229C67.5156 66.415 67.4102 66.0342 67.1992 65.7803C66.9922 65.5264 66.6816 65.3994 66.2676 65.3994C65.6816 65.3994 65.2578 65.5771 64.9961 65.9326C64.7383 66.2842 64.6094 66.8018 64.6094 67.4854V71.001H63.4375V66.9229C63.4375 66.583 63.3906 66.3018 63.2969 66.0791C63.2031 65.8525 63.0645 65.6826 62.8809 65.5693C62.6973 65.4561 62.4648 65.3994 62.1836 65.3994C61.7812 65.3994 61.459 65.4873 61.2168 65.6631C60.9785 65.835 60.8047 66.0908 60.6953 66.4307C60.5898 66.7705 60.5371 67.1865 60.5371 67.6787V71.001H59.3594V64.5439H60.291L60.4609 65.4346H60.5254C60.6543 65.2119 60.8164 65.0264 61.0117 64.8779C61.2109 64.7295 61.4316 64.6182 61.6738 64.5439C61.916 64.4658 62.1719 64.4268 62.4414 64.4268C62.9258 64.4268 63.334 64.5146 63.666 64.6904C63.998 64.8662 64.2422 65.1338 64.3984 65.4932H64.4746C64.6816 65.1299 64.9668 64.8623 65.3301 64.6904C65.6973 64.5146 66.0918 64.4268 66.5137 64.4268ZM73.1172 64.4326C73.9141 64.4326 74.5098 64.6104 74.9043 64.9658C75.2988 65.3174 75.4961 65.874 75.4961 66.6357V71.001H74.6523L74.4238 70.0635H74.377C74.1973 70.2979 74.0098 70.4932 73.8145 70.6494C73.6191 70.8057 73.3926 70.9229 73.1348 71.001C72.8809 71.0791 72.5703 71.1182 72.2031 71.1182C71.8125 71.1182 71.4648 71.0479 71.1602 70.9072C70.8555 70.7666 70.6152 70.5557 70.4395 70.2744C70.2676 69.9893 70.1816 69.6279 70.1816 69.1904C70.1816 68.5342 70.4336 68.0361 70.9375 67.6963C71.4414 67.3564 72.2051 67.1709 73.2285 67.1396L74.3418 67.0928V66.7295C74.3418 66.2256 74.2285 65.8701 74.002 65.6631C73.7793 65.4561 73.4668 65.3525 73.0645 65.3525C72.7324 65.3525 72.4141 65.4014 72.1094 65.499C71.8047 65.5928 71.5117 65.7061 71.2305 65.8389L70.8555 64.9834C71.1602 64.8271 71.5059 64.6963 71.8926 64.5908C72.2832 64.4854 72.6914 64.4326 73.1172 64.4326ZM74.3301 67.8662L73.4277 67.9072C72.6816 67.9346 72.1562 68.0596 71.8516 68.2822C71.5508 68.501 71.4004 68.8076 71.4004 69.2021C71.4004 69.5459 71.5039 69.7979 71.7109 69.958C71.918 70.1182 72.1914 70.1982 72.5312 70.1982C73.0547 70.1982 73.4844 70.0518 73.8203 69.7588C74.1602 69.4619 74.3301 69.0244 74.3301 68.4463V67.8662ZM79.293 73.8838C78.4297 73.8838 77.7656 73.7256 77.3008 73.4092C76.8398 73.0928 76.6094 72.6514 76.6094 72.085C76.6094 71.6826 76.7363 71.3408 76.9902 71.0596C77.2441 70.7822 77.5996 70.5947 78.0566 70.4971C77.8848 70.4189 77.7363 70.2998 77.6113 70.1396C77.4902 69.9756 77.4297 69.792 77.4297 69.5889C77.4297 69.3506 77.4961 69.1455 77.6289 68.9736C77.7656 68.7979 77.9688 68.6279 78.2383 68.4639C77.8984 68.3232 77.625 68.0908 77.418 67.7666C77.2109 67.4385 77.1074 67.0557 77.1074 66.6182C77.1074 66.1533 77.2051 65.7568 77.4004 65.4287C77.5996 65.1006 77.8848 64.8506 78.2559 64.6787C78.627 64.5068 79.0781 64.4209 79.6094 64.4209C79.7266 64.4209 79.8477 64.4268 79.9727 64.4385C80.0977 64.4463 80.2168 64.46 80.3301 64.4795C80.4434 64.499 80.5352 64.5186 80.6055 64.5381H82.832V65.2354L81.6836 65.4111C81.7969 65.5596 81.8887 65.7354 81.959 65.9385C82.0293 66.1416 82.0645 66.3643 82.0645 66.6064C82.0645 67.2627 81.8398 67.7822 81.3906 68.165C80.9453 68.5439 80.3281 68.7334 79.5391 68.7334C79.3555 68.7295 79.1699 68.7139 78.9824 68.6865C78.8145 68.7842 78.6875 68.8916 78.6016 69.0088C78.5156 69.1221 78.4727 69.2529 78.4727 69.4014C78.4727 69.5146 78.5098 69.6064 78.584 69.6768C78.6621 69.7471 78.7734 69.7998 78.918 69.835C79.0625 69.8662 79.2383 69.8818 79.4453 69.8818H80.5703C81.2734 69.8818 81.8125 70.0303 82.1875 70.3271C82.5625 70.624 82.75 71.0576 82.75 71.6279C82.75 72.3506 82.4531 72.9072 81.8594 73.2979C81.2656 73.6885 80.4102 73.8838 79.293 73.8838ZM79.334 73.0225C79.8379 73.0225 80.2578 72.9717 80.5938 72.8701C80.9336 72.7686 81.1895 72.624 81.3613 72.4365C81.5332 72.249 81.6191 72.0264 81.6191 71.7686C81.6191 71.5342 81.5625 71.3545 81.4492 71.2295C81.3398 71.1084 81.1758 71.0264 80.957 70.9834C80.7383 70.9404 80.4688 70.9189 80.1484 70.9189H79.082C78.8086 70.9189 78.5703 70.9619 78.3672 71.0479C78.1641 71.1338 78.0059 71.2568 77.8926 71.417C77.7793 71.5811 77.7227 71.7822 77.7227 72.0205C77.7227 72.3447 77.8613 72.5928 78.1387 72.7646C78.4199 72.9365 78.8184 73.0225 79.334 73.0225ZM79.5918 67.9307C80.0254 67.9307 80.3496 67.8174 80.5645 67.5908C80.7793 67.3604 80.8867 67.0322 80.8867 66.6064C80.8867 66.1494 80.7773 65.8057 80.5586 65.5752C80.3398 65.3447 80.0156 65.2295 79.5859 65.2295C79.168 65.2295 78.8477 65.3486 78.625 65.5869C78.4062 65.8213 78.2969 66.165 78.2969 66.6182C78.2969 67.0361 78.4082 67.3604 78.6309 67.5908C78.8535 67.8174 79.1738 67.9307 79.5918 67.9307ZM86.582 64.4268C87.1445 64.4268 87.627 64.5479 88.0293 64.79C88.4316 65.0283 88.7402 65.3662 88.9551 65.8037C89.1699 66.2412 89.2773 66.7568 89.2773 67.3506V68.0186H84.8945C84.9062 68.71 85.084 69.2412 85.4277 69.6123C85.7715 69.9795 86.2539 70.1631 86.875 70.1631C87.2852 70.1631 87.6504 70.124 87.9707 70.0459C88.291 69.9678 88.623 69.8525 88.9668 69.7002V70.6904C88.6426 70.8389 88.3164 70.9463 87.9883 71.0127C87.6641 71.083 87.2754 71.1182 86.8223 71.1182C86.1973 71.1182 85.6484 70.9932 85.1758 70.7432C84.707 70.4932 84.3418 70.124 84.0801 69.6357C83.8184 69.1436 83.6875 68.5381 83.6875 67.8193C83.6875 67.1084 83.8066 66.501 84.0449 65.9971C84.2832 65.4893 84.6191 65.1006 85.0527 64.8311C85.4863 64.5615 85.9961 64.4268 86.582 64.4268ZM86.5762 65.3408C86.0996 65.3408 85.7168 65.4971 85.4277 65.8096C85.1387 66.1182 84.9688 66.5615 84.918 67.1396H88.0938C88.0898 66.7842 88.0332 66.4717 87.9238 66.2021C87.8145 65.9326 87.6484 65.7217 87.4258 65.5693C87.207 65.417 86.9238 65.3408 86.5762 65.3408Z" fill="#00394D"/>
<path d="M50.3998 41.5996C50.3998 42.1519 50.8475 42.5996 51.3998 42.5996C51.9521 42.5996 52.3998 42.1519 52.3998 41.5996H50.3998ZM52.1069 25.2927C51.7164 24.9022 51.0832 24.9022 50.6927 25.2927L44.3287 31.6567C43.9382 32.0472 43.9382 32.6804 44.3287 33.0709C44.7192 33.4614 45.3524 33.4614 45.7429 33.0709L51.3998 27.414L57.0566 33.0709C57.4472 33.4614 58.0803 33.4614 58.4708 33.0709C58.8614 32.6804 58.8614 32.0472 58.4708 31.6567L52.1069 25.2927ZM52.3998 41.5996V25.9998H50.3998V41.5996H52.3998Z" fill="#00394D"/>
<path d="M37 33.7998V46.9996C37 48.6565 38.3431 49.9996 40 49.9996H62.1996C63.8565 49.9996 65.1996 48.6565 65.1996 46.9996V33.7998" stroke="#00394D" stroke-width="2" stroke-linecap="round"/>
</svg>
