<svg width="13" height="12" viewBox="0 0 13 12" fill="none" xmlns="http://www.w3.org/2000/svg">
<path d="M3.38817 10.2859L1.7736 9.93368C1.62682 9.90432 1.5094 9.82839 1.42133 9.70588C1.33326 9.58376 1.29902 9.44931 1.31859 9.30253L1.48004 7.64393L0.379201 6.38163C0.281348 6.27399 0.232422 6.14678 0.232422 6C0.232422 5.85322 0.281348 5.72601 0.379201 5.61838L1.48004 4.35608L1.31859 2.69747C1.29902 2.55069 1.33326 2.41624 1.42133 2.29412C1.5094 2.17161 1.62682 2.09568 1.7736 2.06632L3.38817 1.71405L4.23949 0.275618C4.31777 0.14841 4.42541 0.0652351 4.5624 0.0260941C4.6994 -0.013047 4.83639 -0.0081544 4.97338 0.0407719L6.49989 0.6866L8.02639 0.0407719C8.16338 -0.0081544 8.30037 -0.013047 8.43737 0.0260941C8.57436 0.0652351 8.682 0.14841 8.76028 0.275618L9.6116 1.71405L11.2262 2.06632C11.3729 2.09568 11.4904 2.17161 11.5784 2.29412C11.6665 2.41624 11.7008 2.55069 11.6812 2.69747L11.5197 4.35608L12.6206 5.61838C12.7184 5.72601 12.7673 5.85322 12.7673 6C12.7673 6.14678 12.7184 6.27399 12.6206 6.38163L11.5197 7.64393L11.6812 9.30253C11.7008 9.44931 11.6665 9.58376 11.5784 9.70588C11.4904 9.82839 11.3729 9.90432 11.2262 9.93368L9.6116 10.2859L8.76028 11.7244C8.682 11.8516 8.57436 11.9348 8.43737 11.9739C8.30037 12.013 8.16338 12.0082 8.02639 11.9592L6.49989 11.3134L4.97338 11.9592C4.83639 12.0082 4.6994 12.013 4.5624 11.9739C4.42541 11.9348 4.31777 11.8516 4.23949 11.7244L3.38817 10.2859ZM5.47243 7.67328C5.58007 7.78092 5.71706 7.83474 5.88341 7.83474C6.04976 7.83474 6.18676 7.78092 6.29439 7.67328L8.78964 5.17804C8.90706 5.06061 8.96577 4.92108 8.96577 4.75942C8.96577 4.59816 8.90706 4.45882 8.78964 4.3414C8.67221 4.22397 8.53287 4.16526 8.37161 4.16526C8.20996 4.16526 8.07042 4.22397 7.953 4.3414L5.88341 6.41098L5.0321 5.57434C4.91467 5.4667 4.77533 5.41523 4.61407 5.41993C4.45242 5.42502 4.31777 5.48138 4.21013 5.58902C4.1025 5.69666 4.04868 5.83365 4.04868 6C4.04868 6.16635 4.1025 6.30334 4.21013 6.41098L5.47243 7.67328Z" fill="white"/>
</svg>
