<svg width="66" height="66" viewBox="0 0 66 66" fill="none" xmlns="http://www.w3.org/2000/svg">
<g filter="url(#filter0_d_420_12570)">
<rect x="7" y="3" width="52" height="52" rx="26" fill="#00D95F"/>
<path d="M20 41.0373L21.8654 34.1011C20.361 31.3991 19.883 28.2461 20.5192 25.2207C21.1554 22.1953 22.8631 19.5004 25.3289 17.6305C27.7947 15.7607 30.8533 14.8413 33.9433 15.041C37.0333 15.2408 39.9476 16.5463 42.1512 18.718C44.3549 20.8898 45.7002 23.782 45.9403 26.8641C46.1803 29.9462 45.299 33.0113 43.4581 35.497C41.6172 37.9827 38.9402 39.7223 35.9182 40.3965C32.8963 41.0708 29.7321 40.6344 27.0064 39.1676L20 41.0373ZM27.3443 36.572L27.7776 36.8287C29.7519 37.9969 32.0578 38.4804 34.336 38.2037C36.6143 37.927 38.7368 36.9056 40.373 35.2989C42.0091 33.6921 43.0668 31.5901 43.3814 29.3205C43.696 27.0509 43.2497 24.7411 42.1121 22.7512C40.9745 20.7612 39.2095 19.2029 37.0921 18.3189C34.9748 17.435 32.624 17.2751 30.4061 17.8643C28.1882 18.4534 26.2279 19.7585 24.8305 21.576C23.4331 23.3936 22.6772 25.6216 22.6807 27.9128C22.6788 29.8126 23.2051 31.6757 24.2009 33.2946L24.4727 33.7418L23.4298 37.6132L27.3443 36.572Z" fill="white"/>
<path fill-rule="evenodd" clip-rule="evenodd" d="M37.8615 29.694C37.6075 29.4894 37.3101 29.3455 36.9919 29.273C36.6737 29.2006 36.3432 29.2016 36.0254 29.276C35.5481 29.474 35.2396 30.2219 34.9311 30.5958C34.8661 30.6855 34.7705 30.7483 34.6623 30.7726C34.5542 30.7969 34.4408 30.781 34.3436 30.7278C32.5959 30.0444 31.131 28.7912 30.1868 27.1717C30.1062 27.0707 30.0681 26.9424 30.0804 26.8138C30.0928 26.6853 30.1546 26.5665 30.2529 26.4825C30.5969 26.1425 30.8495 25.7214 30.9873 25.2581C31.0179 24.747 30.9006 24.238 30.6494 23.7917C30.4553 23.1659 30.0857 22.6087 29.5845 22.1859C29.326 22.0698 29.0394 22.0309 28.7592 22.0739C28.479 22.1168 28.2173 22.2397 28.0055 22.4279C27.6379 22.7445 27.3461 23.1394 27.1517 23.5836C26.9572 24.0277 26.865 24.5097 26.8818 24.9941C26.883 25.2661 26.9175 25.537 26.9847 25.8006C27.1552 26.4341 27.4175 27.0392 27.7631 27.597C28.0126 28.0243 28.2847 28.4379 28.5784 28.8361C29.5328 30.1442 30.7325 31.2547 32.1109 32.1062C32.8027 32.5389 33.542 32.8907 34.3142 33.1547C35.1165 33.5178 36.0022 33.6571 36.8774 33.558C37.376 33.4826 37.8485 33.2861 38.2532 32.9856C38.6578 32.6852 38.9824 32.29 39.1982 31.8349C39.3249 31.56 39.3634 31.2527 39.3083 30.9551C39.1761 30.3465 38.3609 29.9873 37.8615 29.694Z" fill="white"/>
</g>
<defs>
<filter id="filter0_d_420_12570" x="0" y="0" width="66" height="66" filterUnits="userSpaceOnUse" color-interpolation-filters="sRGB">
<feFlood flood-opacity="0" result="BackgroundImageFix"/>
<feColorMatrix in="SourceAlpha" type="matrix" values="0 0 0 0 0 0 0 0 0 0 0 0 0 0 0 0 0 0 127 0" result="hardAlpha"/>
<feOffset dy="4"/>
<feGaussianBlur stdDeviation="3.5"/>
<feComposite in2="hardAlpha" operator="out"/>
<feColorMatrix type="matrix" values="0 0 0 0 0 0 0 0 0 0.85098 0 0 0 0 0.372549 0 0 0 0.34 0"/>
<feBlend mode="normal" in2="BackgroundImageFix" result="effect1_dropShadow_420_12570"/>
<feBlend mode="normal" in="SourceGraphic" in2="effect1_dropShadow_420_12570" result="shape"/>
</filter>
</defs>
</svg>
